STARTFONT 2.1
FONT -Adobe-Utopia-Bold-I-Normal--17-120-100-100-P-93-ISO10646-1
SIZE 12 100 100
FONTBOUNDINGBOX 24 29 -2 -8
COMMENT $Xorg: $
COMMENT ISO10646-1 extension by Markus Kuhn <mkuhn@acm.org>, 2001-03-20
STARTPROPERTIES 28
FOUNDRY "Adobe"
FAMILY_NAME "Utopia"
WEIGHT_NAME "Bold"
SLANT "I"
SETWIDTH_NAME "Normal"
ADD_STYLE_NAME ""
PIXEL_SIZE 17
POINT_SIZE 120
RESOLUTION_X 100
RESOLUTION_Y 100
SPACING "P"
AVERAGE_WIDTH 93
CHARSET_REGISTRY "ISO10646"
CHARSET_ENCODING "1"
CAP_HEIGHT 12
X_HEIGHT 8
RELATIVE_SETWIDTH 50
RELATIVE_WEIGHT 70
WEIGHT 208
FACE_NAME "Utopia Bold Italic"
COPYRIGHT "Copyright (c) 1989, 1991 Adobe Systems Incorporated.  All Rights Reserved."
NOTICE "Utopia is a registered trademark of Adobe Systems Incorporated."
DESTINATION 0
FONT_ASCENT 15
FONT_DESCENT 4
DEFAULT_CHAR 0
_ADOBE_PSFONT "Utopia-BoldItalic"
_DEC_DEVICE_FONTNAMES "PS=Utopia-BoldItalic"
ENDPROPERTIES
CHARS 723
STARTCHAR char0
ENCODING 0
SWIDTH 800 0
DWIDTH 13 0
BBX 15 11 0 0
BITMAP
AAAA
0000
8002
0000
8002
0000
8002
0000
8002
0000
AAAA
ENDCHAR
STARTCHAR space
ENCODING 32
SWIDTH 210 0
DWIDTH 3 0
BBX 0 0 0 0
BITMAP
ENDCHAR
STARTCHAR exclam
ENCODING 33
SWIDTH 285 0
DWIDTH 5 0
BBX 5 12 1 0
BITMAP
38
38
30
30
30
20
20
20
00
E0
E0
C0
ENDCHAR
STARTCHAR quotedbl
ENCODING 34
SWIDTH 455 0
DWIDTH 8 0
BBX 6 5 3 7
BITMAP
EC
CC
C8
98
90
ENDCHAR
STARTCHAR numbersign
ENCODING 35
SWIDTH 560 0
DWIDTH 9 0
BBX 9 11 1 0
BITMAP
0900
0900
1200
7F80
1200
2400
FF00
2C00
4800
4800
5800
ENDCHAR
STARTCHAR dollar
ENCODING 36
SWIDTH 560 0
DWIDTH 9 0
BBX 9 14 1 -2
BITMAP
0200
0E00
1580
3580
3C00
3E00
1F00
0F00
4B00
CB00
F200
3C00
1000
1000
ENDCHAR
STARTCHAR percent
ENCODING 37
SWIDTH 896 0
DWIDTH 15 0
BBX 13 12 2 0
BITMAP
0010
3FE0
6620
C640
C480
C900
7A70
00D8
0598
0998
11B0
20E0
ENDCHAR
STARTCHAR ampersand
ENCODING 38
SWIDTH 752 0
DWIDTH 13 0
BBX 11 11 2 0
BITMAP
0E00
1300
3200
34E0
38C0
3CC0
5E80
CF00
C700
E380
7CC0
ENDCHAR
STARTCHAR quotesingle
ENCODING 39
SWIDTH 246 0
DWIDTH 4 0
BBX 2 6 3 6
BITMAP
C0
C0
C0
80
80
80
ENDCHAR
STARTCHAR parenleft
ENCODING 40
SWIDTH 350 0
DWIDTH 6 0
BBX 6 14 2 -2
BITMAP
0C
18
30
30
60
60
40
C0
C0
C0
C0
C0
40
60
ENDCHAR
STARTCHAR parenright
ENCODING 41
SWIDTH 350 0
DWIDTH 6 0
BBX 6 14 0 -2
BITMAP
10
08
08
0C
0C
0C
0C
08
18
18
10
30
60
C0
ENDCHAR
STARTCHAR asterisk
ENCODING 42
SWIDTH 500 0
DWIDTH 8 0
BBX 7 7 2 5
BITMAP
18
5A
7E
30
DC
94
30
ENDCHAR
STARTCHAR plus
ENCODING 43
SWIDTH 600 0
DWIDTH 10 0
BBX 8 8 2 0
BITMAP
18
18
18
FF
18
18
18
18
ENDCHAR
STARTCHAR comma
ENCODING 44
SWIDTH 280 0
DWIDTH 5 0
BBX 3 6 1 -3
BITMAP
60
60
60
40
40
80
ENDCHAR
STARTCHAR hyphen
ENCODING 45
SWIDTH 392 0
DWIDTH 7 0
BBX 5 2 2 3
BITMAP
F8
F8
ENDCHAR
STARTCHAR period
ENCODING 46
SWIDTH 280 0
DWIDTH 5 0
BBX 3 3 1 0
BITMAP
60
E0
C0
ENDCHAR
STARTCHAR slash
ENCODING 47
SWIDTH 260 0
DWIDTH 4 0
BBX 6 12 1 0
BITMAP
0C
08
08
18
10
30
30
20
60
40
40
C0
ENDCHAR
STARTCHAR zero
ENCODING 48
SWIDTH 560 0
DWIDTH 9 0
BBX 8 11 2 0
BITMAP
1E
32
63
63
E3
C7
C7
C6
C6
4C
38
ENDCHAR
STARTCHAR one
ENCODING 49
SWIDTH 560 0
DWIDTH 9 0
BBX 7 11 2 0
BITMAP
06
3E
0C
0C
1C
1C
18
18
38
38
FC
ENDCHAR
STARTCHAR two
ENCODING 50
SWIDTH 560 0
DWIDTH 9 0
BBX 9 11 1 0
BITMAP
0F00
1980
3180
1180
0380
0700
0C00
1800
6100
7F00
FF00
ENDCHAR
STARTCHAR three
ENCODING 51
SWIDTH 560 0
DWIDTH 9 0
BBX 9 11 1 0
BITMAP
0F00
3980
1180
0380
1C00
0300
0300
4300
E300
6600
3C00
ENDCHAR
STARTCHAR four
ENCODING 52
SWIDTH 560 0
DWIDTH 9 0
BBX 9 11 1 0
BITMAP
0180
0380
0700
0B00
1300
2700
4600
FF80
0600
0E00
1F00
ENDCHAR
STARTCHAR five
ENCODING 53
SWIDTH 560 0
DWIDTH 9 0
BBX 9 11 1 0
BITMAP
1F80
1F00
3000
2000
3E00
2300
0300
0300
C300
E600
3C00
ENDCHAR
STARTCHAR six
ENCODING 54
SWIDTH 560 0
DWIDTH 9 0
BBX 8 11 2 0
BITMAP
1E
33
63
60
FE
E3
C3
C3
C3
46
3C
ENDCHAR
STARTCHAR seven
ENCODING 55
SWIDTH 560 0
DWIDTH 9 0
BBX 9 11 2 0
BITMAP
7F80
7F80
8300
0200
0400
0800
1800
3000
7000
6000
6000
ENDCHAR
STARTCHAR eight
ENCODING 56
SWIDTH 560 0
DWIDTH 9 0
BBX 9 11 1 0
BITMAP
0F00
1980
3180
3180
3300
3E00
6300
C300
C300
C600
3C00
ENDCHAR
STARTCHAR nine
ENCODING 57
SWIDTH 560 0
DWIDTH 9 0
BBX 9 11 1 0
BITMAP
1E00
3100
6180
6180
6180
6380
3F80
0300
4700
C600
3C00
ENDCHAR
STARTCHAR colon
ENCODING 58
SWIDTH 280 0
DWIDTH 5 0
BBX 4 8 1 0
BITMAP
30
70
20
00
00
60
E0
C0
ENDCHAR
STARTCHAR semicolon
ENCODING 59
SWIDTH 280 0
DWIDTH 5 0
BBX 4 11 1 -3
BITMAP
70
70
60
00
00
60
60
60
40
40
80
ENDCHAR
STARTCHAR less
ENCODING 60
SWIDTH 600 0
DWIDTH 10 0
BBX 8 9 2 -1
BITMAP
01
07
1E
78
C0
F0
1C
07
01
ENDCHAR
STARTCHAR equal
ENCODING 61
SWIDTH 600 0
DWIDTH 10 0
BBX 8 4 2 2
BITMAP
FF
00
00
FF
ENDCHAR
STARTCHAR greater
ENCODING 62
SWIDTH 600 0
DWIDTH 10 0
BBX 8 9 2 -1
BITMAP
80
E0
78
1E
03
0F
38
E0
80
ENDCHAR
STARTCHAR question
ENCODING 63
SWIDTH 454 0
DWIDTH 8 0
BBX 7 12 2 0
BITMAP
3C
66
66
0E
1C
70
60
78
00
60
E0
E0
ENDCHAR
STARTCHAR at
ENCODING 64
SWIDTH 828 0
DWIDTH 14 0
BBX 12 12 2 0
BITMAP
0780
1860
3010
63D0
4CD0
CD90
D990
DBA0
DDC0
4000
3040
0F80
ENDCHAR
STARTCHAR A
ENCODING 65
SWIDTH 634 0
DWIDTH 11 0
BBX 12 12 -1 0
BITMAP
01C0
01C0
03C0
03C0
05C0
04C0
08C0
0FC0
10C0
30E0
20E0
F1F0
ENDCHAR
STARTCHAR B
ENCODING 66
SWIDTH 680 0
DWIDTH 11 0
BBX 11 12 1 0
BITMAP
3FC0
0C60
1C60
1C60
18C0
1F80
1980
38C0
38C0
30C0
3180
FF00
ENDCHAR
STARTCHAR C
ENCODING 67
SWIDTH 672 0
DWIDTH 11 0
BBX 11 12 2 0
BITMAP
0780
18E0
3040
7040
6000
E000
E000
E000
E080
6080
7100
1E00
ENDCHAR
STARTCHAR D
ENCODING 68
SWIDTH 774 0
DWIDTH 13 0
BBX 13 12 0 0
BITMAP
1FC0
0C30
0C18
0C18
1818
1818
1818
1838
3830
3870
38E0
FF80
ENDCHAR
STARTCHAR E
ENCODING 69
SWIDTH 622 0
DWIDTH 10 0
BBX 11 12 1 0
BITMAP
3FE0
1C60
1C20
1800
1880
3F80
3900
3100
3040
7080
7180
FF80
ENDCHAR
STARTCHAR F
ENCODING 70
SWIDTH 585 0
DWIDTH 10 0
BBX 11 12 1 0
BITMAP
3FE0
0C60
0C20
0C00
1840
1880
1F80
1880
1800
3800
3000
FC00
ENDCHAR
STARTCHAR G
ENCODING 71
SWIDTH 726 0
DWIDTH 12 0
BBX 11 12 2 0
BITMAP
07C0
1860
3020
7020
E000
E000
E3E0
E1C0
E1C0
61C0
7180
1F00
ENDCHAR
STARTCHAR H
ENCODING 72
SWIDTH 800 0
DWIDTH 13 0
BBX 15 12 0 0
BITMAP
3F7E
0C18
0C38
1C38
1C38
1FF0
1830
3870
3870
3860
3060
FDF0
ENDCHAR
STARTCHAR I
ENCODING 73
SWIDTH 386 0
DWIDTH 6 0
BBX 8 12 1 0
BITMAP
3F
0C
0C
1C
1C
18
18
38
38
30
30
FC
ENDCHAR
STARTCHAR J
ENCODING 74
SWIDTH 388 0
DWIDTH 6 0
BBX 9 14 0 -2
BITMAP
0F80
0600
0600
0E00
0E00
0C00
0C00
1C00
1C00
1C00
1800
3800
7000
E000
ENDCHAR
STARTCHAR K
ENCODING 75
SWIDTH 688 0
DWIDTH 11 0
BBX 13 12 1 0
BITMAP
3E78
1C60
1CC0
1980
1A00
3E00
3F00
3700
3780
7380
61C0
F8E0
ENDCHAR
STARTCHAR L
ENCODING 76
SWIDTH 586 0
DWIDTH 10 0
BBX 10 12 1 0
BITMAP
3F00
0C00
1C00
1C00
1C00
1800
3800
3800
3840
7040
7080
FF80
ENDCHAR
STARTCHAR M
ENCODING 77
SWIDTH 921 0
DWIDTH 15 0
BBX 16 12 1 0
BITMAP
3C0F
1C1E
1C1C
2E2C
2E4C
265C
265C
2698
2718
4738
4638
F27C
ENDCHAR
STARTCHAR N
ENCODING 78
SWIDTH 741 0
DWIDTH 12 0
BBX 14 12 1 0
BITMAP
3C3C
0E18
1610
1710
1710
1320
13A0
21A0
21E0
21E0
60C0
F0C0
ENDCHAR
STARTCHAR O
ENCODING 79
SWIDTH 761 0
DWIDTH 13 0
BBX 11 12 2 0
BITMAP
0F80
38C0
7060
6060
E060
C060
C060
C0E0
C0C0
C1C0
6380
3E00
ENDCHAR
STARTCHAR P
ENCODING 80
SWIDTH 660 0
DWIDTH 11 0
BBX 11 12 1 0
BITMAP
1F80
0C60
0C60
1C60
1C60
18C0
1F80
3800
3800
3800
3000
FC00
ENDCHAR
STARTCHAR Q
ENCODING 81
SWIDTH 761 0
DWIDTH 13 0
BBX 11 15 2 -3
BITMAP
0F80
38C0
7060
6060
E060
C060
C0E0
C0E0
C0C0
41C0
6380
3E00
0E00
0F80
03C0
ENDCHAR
STARTCHAR R
ENCODING 82
SWIDTH 681 0
DWIDTH 11 0
BBX 11 12 1 0
BITMAP
1FC0
0C60
0C60
0C60
1860
18C0
1F00
1980
1980
3980
3980
F8C0
ENDCHAR
STARTCHAR S
ENCODING 83
SWIDTH 551 0
DWIDTH 9 0
BBX 9 12 2 0
BITMAP
1E00
2380
6100
6100
7000
3C00
1C00
0E00
8600
8600
C400
7800
ENDCHAR
STARTCHAR T
ENCODING 84
SWIDTH 616 0
DWIDTH 10 0
BBX 11 12 2 0
BITMAP
7FE0
4E40
8E40
0C00
1C00
1C00
1C00
1800
1800
3800
3800
FC00
ENDCHAR
STARTCHAR U
ENCODING 85
SWIDTH 776 0
DWIDTH 13 0
BBX 12 12 3 0
BITMAP
F9F0
70C0
60C0
61C0
61C0
6180
C180
C380
C380
C300
C600
3C00
ENDCHAR
STARTCHAR V
ENCODING 86
SWIDTH 630 0
DWIDTH 10 0
BBX 12 12 2 0
BITMAP
F8F0
7040
70C0
7080
3100
3100
3200
3200
3C00
3C00
3800
3800
ENDCHAR
STARTCHAR W
ENCODING 87
SWIDTH 920 0
DWIDTH 15 0
BBX 16 12 2 0
BITMAP
F007
6182
6382
6384
6784
6588
65C8
69D8
69D0
70E0
70E0
60C0
ENDCHAR
STARTCHAR X
ENCODING 88
SWIDTH 630 0
DWIDTH 10 0
BBX 13 12 0 0
BITMAP
3E78
0C20
0E40
0680
0700
0700
0700
0F80
0980
11C0
21C0
FBE0
ENDCHAR
STARTCHAR Y
ENCODING 89
SWIDTH 622 0
DWIDTH 10 0
BBX 11 12 2 0
BITMAP
F9E0
3080
3180
3100
3A00
1C00
1C00
1800
1800
1800
3800
7C00
ENDCHAR
STARTCHAR Z
ENCODING 90
SWIDTH 618 0
DWIDTH 10 0
BBX 12 12 0 0
BITMAP
1FF0
1870
10E0
01C0
0380
0700
0E00
1E00
1C20
3840
70C0
FFC0
ENDCHAR
STARTCHAR bracketleft
ENCODING 91
SWIDTH 350 0
DWIDTH 6 0
BBX 6 14 2 -2
BITMAP
1C
10
30
30
30
20
20
60
60
40
40
40
C0
E0
ENDCHAR
STARTCHAR backslash
ENCODING 92
SWIDTH 460 0
DWIDTH 8 0
BBX 5 12 3 0
BITMAP
C0
C0
40
60
60
20
20
30
30
10
18
18
ENDCHAR
STARTCHAR bracketright
ENCODING 93
SWIDTH 350 0
DWIDTH 6 0
BBX 6 14 0 -2
BITMAP
1C
0C
08
08
08
18
18
10
10
30
30
30
20
E0
ENDCHAR
STARTCHAR asciicircum
ENCODING 94
SWIDTH 600 0
DWIDTH 10 0
BBX 8 8 2 3
BITMAP
18
18
3C
24
66
66
42
C3
ENDCHAR
STARTCHAR underscore
ENCODING 95
SWIDTH 500 0
DWIDTH 8 0
BBX 8 1 0 -2
BITMAP
FF
ENDCHAR
STARTCHAR grave
ENCODING 96
SWIDTH 400 0
DWIDTH 7 0
BBX 5 4 2 8
BITMAP
C0
E0
30
08
ENDCHAR
STARTCHAR a
ENCODING 97
SWIDTH 596 0
DWIDTH 10 0
BBX 9 8 1 0
BITMAP
0F80
3300
6300
6700
C600
CE00
D680
E700
ENDCHAR
STARTCHAR b
ENCODING 98
SWIDTH 586 0
DWIDTH 10 0
BBX 9 12 1 0
BITMAP
0800
3800
1800
3800
3380
3580
3980
7180
7300
6300
6600
9C00
ENDCHAR
STARTCHAR c
ENCODING 99
SWIDTH 456 0
DWIDTH 8 0
BBX 8 8 1 0
BITMAP
1E
33
62
C0
C0
C2
C4
78
ENDCHAR
STARTCHAR d
ENCODING 100
SWIDTH 609 0
DWIDTH 10 0
BBX 10 12 1 0
BITMAP
0040
01C0
00C0
01C0
0F80
3980
7180
6380
C300
C700
CB40
F380
ENDCHAR
STARTCHAR e
ENCODING 101
SWIDTH 476 0
DWIDTH 8 0
BBX 8 8 1 0
BITMAP
1E
33
63
C6
F8
C2
C6
78
ENDCHAR
STARTCHAR f
ENCODING 102
SWIDTH 348 0
DWIDTH 6 0
BBX 11 16 -1 -4
BITMAP
01C0
0360
0700
0600
1F80
0600
0E00
0C00
0C00
0C00
0C00
1800
1800
1800
D000
6000
ENDCHAR
STARTCHAR g
ENCODING 103
SWIDTH 522 0
DWIDTH 9 0
BBX 11 12 0 -4
BITMAP
0F60
1980
3180
3380
1E00
3000
3E00
3F80
C380
C180
E100
3E00
ENDCHAR
STARTCHAR h
ENCODING 104
SWIDTH 629 0
DWIDTH 10 0
BBX 10 12 1 0
BITMAP
0C00
3800
1800
3800
3380
3580
3980
3180
7100
6340
6340
E380
ENDCHAR
STARTCHAR i
ENCODING 105
SWIDTH 339 0
DWIDTH 6 0
BBX 5 12 2 0
BITMAP
18
38
10
00
30
E0
60
60
60
C0
D0
E0
ENDCHAR
STARTCHAR j
ENCODING 106
SWIDTH 333 0
DWIDTH 6 0
BBX 8 16 -1 -4
BITMAP
03
07
02
00
06
1C
0C
0C
0C
0C
1C
18
18
18
D0
E0
ENDCHAR
STARTCHAR k
ENCODING 107
SWIDTH 570 0
DWIDTH 9 0
BBX 10 12 1 0
BITMAP
1800
7800
3000
3000
31C0
3380
7400
6400
6C00
6C00
E580
C700
ENDCHAR
STARTCHAR l
ENCODING 108
SWIDTH 327 0
DWIDTH 5 0
BBX 5 12 2 0
BITMAP
18
70
30
30
60
60
60
60
40
C0
D0
E0
ENDCHAR
STARTCHAR m
ENCODING 109
SWIDTH 914 0
DWIDTH 15 0
BBX 15 8 1 0
BITMAP
139C
75AC
39CC
318C
7398
731A
631A
E71C
ENDCHAR
STARTCHAR n
ENCODING 110
SWIDTH 635 0
DWIDTH 11 0
BBX 10 8 1 0
BITMAP
1380
7580
3980
3980
7300
7340
6340
E380
ENDCHAR
STARTCHAR o
ENCODING 111
SWIDTH 562 0
DWIDTH 9 0
BBX 9 8 1 0
BITMAP
1F00
7180
6180
E180
C380
C300
C700
7C00
ENDCHAR
STARTCHAR p
ENCODING 112
SWIDTH 606 0
DWIDTH 10 0
BBX 10 12 1 -4
BITMAP
19C0
7AC0
1CC0
38C0
3980
3180
3300
7E00
6000
6000
6000
C000
ENDCHAR
STARTCHAR q
ENCODING 113
SWIDTH 584 0
DWIDTH 10 0
BBX 9 12 1 -4
BITMAP
1E80
3380
6300
6300
C700
CE00
D600
E600
0E00
0C00
0C00
0800
ENDCHAR
STARTCHAR r
ENCODING 114
SWIDTH 440 0
DWIDTH 7 0
BBX 8 8 1 0
BITMAP
33
7F
30
30
70
70
60
E0
ENDCHAR
STARTCHAR s
ENCODING 115
SWIDTH 417 0
DWIDTH 7 0
BBX 7 8 1 0
BITMAP
3C
66
60
78
3C
8C
CC
78
ENDCHAR
STARTCHAR t
ENCODING 116
SWIDTH 359 0
DWIDTH 6 0
BBX 6 10 2 0
BITMAP
30
70
FC
60
60
60
40
D0
D0
E0
ENDCHAR
STARTCHAR u
ENCODING 117
SWIDTH 634 0
DWIDTH 11 0
BBX 9 8 2 0
BITMAP
3180
F300
6300
6300
6700
CE00
D680
E700
ENDCHAR
STARTCHAR v
ENCODING 118
SWIDTH 518 0
DWIDTH 9 0
BBX 8 8 2 0
BITMAP
33
E3
63
62
C2
C4
C8
F0
ENDCHAR
STARTCHAR w
ENCODING 119
SWIDTH 795 0
DWIDTH 13 0
BBX 12 8 2 0
BITMAP
2330
E330
6330
6630
C620
CE40
D680
E700
ENDCHAR
STARTCHAR x
ENCODING 120
SWIDTH 516 0
DWIDTH 9 0
BBX 10 8 0 0
BITMAP
39C0
1F80
0C00
0C00
0C00
1E80
F680
E700
ENDCHAR
STARTCHAR y
ENCODING 121
SWIDTH 489 0
DWIDTH 8 0
BBX 10 12 -1 -4
BITMAP
3840
18C0
1CC0
0C80
0D80
0D00
0E00
0E00
0C00
0800
4800
F000
ENDCHAR
STARTCHAR z
ENCODING 122
SWIDTH 466 0
DWIDTH 8 0
BBX 9 8 0 0
BITMAP
1F80
3F00
4600
0C00
1800
3100
7F00
CE00
ENDCHAR
STARTCHAR braceleft
ENCODING 123
SWIDTH 340 0
DWIDTH 6 0
BBX 6 14 2 -2
BITMAP
0C
10
30
30
30
20
C0
60
60
40
C0
C0
C0
60
ENDCHAR
STARTCHAR bar
ENCODING 124
SWIDTH 265 0
DWIDTH 4 0
BBX 2 12 2 0
BITMAP
C0
C0
C0
C0
C0
C0
C0
C0
C0
C0
C0
C0
ENDCHAR
STARTCHAR braceright
ENCODING 125
SWIDTH 340 0
DWIDTH 6 0
BBX 6 14 0 -2
BITMAP
18
0C
0C
08
18
18
0C
10
10
30
30
30
20
C0
ENDCHAR
STARTCHAR asciitilde
ENCODING 126
SWIDTH 600 0
DWIDTH 10 0
BBX 8 3 2 3
BITMAP
21
7E
84
ENDCHAR
STARTCHAR space
ENCODING 160
SWIDTH 210 0
DWIDTH 3 0
BBX 0 0 0 0
BITMAP
ENDCHAR
STARTCHAR exclamdown
ENCODING 161
SWIDTH 285 0
DWIDTH 5 0
BBX 5 12 0 -4
BITMAP
38
38
30
00
20
20
20
60
60
60
E0
E0
ENDCHAR
STARTCHAR cent
ENCODING 162
SWIDTH 560 0
DWIDTH 9 0
BBX 9 12 2 -1
BITMAP
0400
0400
1F00
7580
6580
C800
C800
C800
F300
7C00
1000
3000
ENDCHAR
STARTCHAR sterling
ENCODING 163
SWIDTH 560 0
DWIDTH 9 0
BBX 9 11 1 0
BITMAP
0E00
1380
3100
3000
3000
7E00
1800
1800
3100
FF00
FE00
ENDCHAR
STARTCHAR currency
ENCODING 164
SWIDTH 560 0
DWIDTH 9 0
BBX 8 7 2 2
BITMAP
FF
66
C3
C3
C3
66
FF
ENDCHAR
STARTCHAR yen
ENCODING 165
SWIDTH 560 0
DWIDTH 9 0
BBX 10 11 2 0
BITMAP
7BC0
3180
3300
3A00
3C00
7F00
1800
FE00
3000
3000
F800
ENDCHAR
STARTCHAR brokenbar
ENCODING 166
SWIDTH 265 0
DWIDTH 4 0
BBX 2 12 2 0
BITMAP
C0
C0
C0
C0
C0
00
00
C0
C0
C0
C0
C0
ENDCHAR
STARTCHAR section
ENCODING 167
SWIDTH 568 0
DWIDTH 9 0
BBX 8 14 2 -2
BITMAP
0E
13
32
78
9C
8E
C7
E1
71
3A
1E
8C
C8
70
ENDCHAR
STARTCHAR dieresis
ENCODING 168
SWIDTH 400 0
DWIDTH 7 0
BBX 7 2 2 10
BITMAP
EE
EE
ENDCHAR
STARTCHAR copyright
ENCODING 169
SWIDTH 824 0
DWIDTH 14 0
BBX 12 12 2 0
BITMAP
0F00
10C0
2060
4720
8890
9810
9810
9890
CC90
4720
3040
0F80
ENDCHAR
STARTCHAR ordfeminine
ENCODING 170
SWIDTH 444 0
DWIDTH 7 0
BBX 6 5 2 5
BITMAP
3C
6C
48
FC
D8
ENDCHAR
STARTCHAR guillemotleft
ENCODING 171
SWIDTH 560 0
DWIDTH 9 0
BBX 7 7 2 1
BITMAP
12
24
4C
D8
48
4C
24
ENDCHAR
STARTCHAR logicalnot
ENCODING 172
SWIDTH 600 0
DWIDTH 10 0
BBX 8 5 2 1
BITMAP
FF
03
03
03
03
ENDCHAR
STARTCHAR hyphen
ENCODING 173
SWIDTH 392 0
DWIDTH 7 0
BBX 5 2 2 3
BITMAP
F8
F8
ENDCHAR
STARTCHAR registered
ENCODING 174
SWIDTH 824 0
DWIDTH 14 0
BBX 12 12 2 0
BITMAP
0F00
30C0
6060
4F20
8D90
8D90
8E10
8D10
8D90
5D20
2040
1F80
ENDCHAR
STARTCHAR macron
ENCODING 175
SWIDTH 400 0
DWIDTH 7 0
BBX 5 1 3 10
BITMAP
F8
ENDCHAR
STARTCHAR degree
ENCODING 176
SWIDTH 375 0
DWIDTH 6 0
BBX 6 5 2 6
BITMAP
78
84
84
84
78
ENDCHAR
STARTCHAR plusminus
ENCODING 177
SWIDTH 600 0
DWIDTH 10 0
BBX 8 9 2 0
BITMAP
18
18
18
FF
18
18
18
00
FF
ENDCHAR
STARTCHAR twosuperior
ENCODING 178
SWIDTH 402 0
DWIDTH 7 0
BBX 7 6 1 5
BITMAP
1C
36
26
0C
30
FE
ENDCHAR
STARTCHAR threesuperior
ENCODING 179
SWIDTH 402 0
DWIDTH 7 0
BBX 6 6 2 5
BITMAP
38
6C
0C
30
98
F0
ENDCHAR
STARTCHAR acute
ENCODING 180
SWIDTH 400 0
DWIDTH 7 0
BBX 5 4 3 8
BITMAP
18
38
60
80
ENDCHAR
STARTCHAR mu
ENCODING 181
SWIDTH 634 0
DWIDTH 11 0
BBX 10 12 1 -4
BITMAP
18C0
7980
3980
3180
3380
3700
7740
7B80
4000
C000
C000
8000
ENDCHAR
STARTCHAR paragraph
ENCODING 182
SWIDTH 580 0
DWIDTH 10 0
BBX 9 14 2 -2
BITMAP
1B80
7A00
7200
F600
F600
F400
F400
2400
0C00
0C00
0800
0800
1800
7800
ENDCHAR
STARTCHAR periodcentered
ENCODING 183
SWIDTH 280 0
DWIDTH 5 0
BBX 3 3 2 3
BITMAP
60
E0
C0
ENDCHAR
STARTCHAR cedilla
ENCODING 184
SWIDTH 400 0
DWIDTH 7 0
BBX 4 5 2 -4
BITMAP
20
40
70
30
E0
ENDCHAR
STARTCHAR onesuperior
ENCODING 185
SWIDTH 402 0
DWIDTH 7 0
BBX 5 6 2 5
BITMAP
58
38
30
70
70
F8
ENDCHAR
STARTCHAR ordmasculine
ENCODING 186
SWIDTH 412 0
DWIDTH 7 0
BBX 6 5 2 5
BITMAP
38
6C
CC
D8
70
ENDCHAR
STARTCHAR guillemotright
ENCODING 187
SWIDTH 560 0
DWIDTH 9 0
BBX 7 7 2 1
BITMAP
48
64
24
36
64
48
90
ENDCHAR
STARTCHAR onequarter
ENCODING 188
SWIDTH 940 0
DWIDTH 16 0
BBX 12 12 3 0
BITMAP
0040
7060
30C0
3180
6100
6300
F630
04F0
0920
13F0
1060
60F0
ENDCHAR
STARTCHAR onehalf
ENCODING 189
SWIDTH 940 0
DWIDTH 16 0
BBX 14 12 2 0
BITMAP
0040
7070
30E0
31C0
6180
6338
E74C
0E0C
0C18
1830
3044
21F8
ENDCHAR
STARTCHAR threequarters
ENCODING 190
SWIDTH 940 0
DWIDTH 16 0
BBX 12 12 3 0
BITMAP
0020
7060
D860
18C0
3180
9900
F230
04F0
0D20
09F0
1860
30F0
ENDCHAR
STARTCHAR questiondown
ENCODING 191
SWIDTH 454 0
DWIDTH 8 0
BBX 6 12 1 -4
BITMAP
1C
1C
18
00
3C
0C
0C
30
E0
CC
DC
70
ENDCHAR
STARTCHAR Agrave
ENCODING 192
SWIDTH 634 0
DWIDTH 11 0
BBX 12 15 -1 0
BITMAP
0700
01C0
0000
01C0
01C0
03C0
03C0
05C0
04C0
08C0
0FC0
10C0
30E0
20E0
F1F0
ENDCHAR
STARTCHAR Aacute
ENCODING 193
SWIDTH 634 0
DWIDTH 11 0
BBX 12 15 -1 0
BITMAP
0070
01E0
0000
01C0
01C0
03C0
03C0
05C0
04C0
08C0
0FC0
10C0
30E0
20E0
F1F0
ENDCHAR
STARTCHAR Acircumflex
ENCODING 194
SWIDTH 634 0
DWIDTH 11 0
BBX 12 15 -1 0
BITMAP
00C0
03E0
0410
01C0
01C0
03C0
03C0
05C0
04C0
08C0
0FC0
10C0
30E0
20E0
F1F0
ENDCHAR
STARTCHAR Atilde
ENCODING 195
SWIDTH 634 0
DWIDTH 11 0
BBX 12 14 0 0
BITMAP
03D0
0420
0180
0180
03C0
03C0
05C0
05C0
09C0
1FC0
10C0
20C0
20C0
F3F0
ENDCHAR
STARTCHAR Adieresis
ENCODING 196
SWIDTH 634 0
DWIDTH 11 0
BBX 11 14 0 0
BITMAP
0660
0620
0080
0180
0380
0580
0580
09C0
19C0
1FC0
30C0
20C0
40C0
F1E0
ENDCHAR
STARTCHAR Aring
ENCODING 197
SWIDTH 634 0
DWIDTH 11 0
BBX 11 15 0 0
BITMAP
0180
0240
0240
0380
0380
0380
0580
0D80
09C0
19C0
1FC0
20C0
20C0
40C0
E1E0
ENDCHAR
STARTCHAR AE
ENCODING 198
SWIDTH 890 0
DWIDTH 15 0
BBX 18 12 -1 0
BITMAP
01FFC0
00B080
013080
017000
027200
07FE00
0C6200
08E200
10E000
30C100
60E300
F3FE00
ENDCHAR
STARTCHAR Ccedilla
ENCODING 199
SWIDTH 672 0
DWIDTH 11 0
BBX 11 16 2 -4
BITMAP
0F80
18E0
3040
7040
6000
E000
E000
E000
E080
6180
7300
1E00
0800
1C00
0C00
1800
ENDCHAR
STARTCHAR Egrave
ENCODING 200
SWIDTH 622 0
DWIDTH 10 0
BBX 11 15 1 0
BITMAP
0E00
0780
0000
3FE0
1C60
1C20
1800
1880
3F80
3900
3100
3040
7080
7180
FF80
ENDCHAR
STARTCHAR Eacute
ENCODING 201
SWIDTH 622 0
DWIDTH 10 0
BBX 11 15 1 0
BITMAP
00C0
0780
0000
3FE0
1C60
1C20
1800
1880
3F80
3900
3100
3040
7080
7180
FF80
ENDCHAR
STARTCHAR Ecircumflex
ENCODING 202
SWIDTH 622 0
DWIDTH 10 0
BBX 11 15 1 0
BITMAP
0100
0FC0
0000
3FE0
1C60
1C20
1800
1880
3F80
3900
3100
3040
7080
7180
FF80
ENDCHAR
STARTCHAR Edieresis
ENCODING 203
SWIDTH 622 0
DWIDTH 10 0
BBX 10 14 1 0
BITMAP
0CC0
0CC0
3FC0
0C40
1840
1800
1880
1F80
1900
3900
3040
3080
3080
FF80
ENDCHAR
STARTCHAR Igrave
ENCODING 204
SWIDTH 386 0
DWIDTH 6 0
BBX 8 15 1 0
BITMAP
18
0E
00
3F
0C
0C
1C
1C
18
18
38
38
30
30
FC
ENDCHAR
STARTCHAR Iacute
ENCODING 205
SWIDTH 386 0
DWIDTH 6 0
BBX 8 15 1 0
BITMAP
07
1E
00
3E
1C
1C
1C
18
18
38
38
30
30
70
F8
ENDCHAR
STARTCHAR Icircumflex
ENCODING 206
SWIDTH 386 0
DWIDTH 6 0
BBX 8 15 1 0
BITMAP
04
3F
00
3E
1C
1C
18
18
18
38
38
30
30
70
F8
ENDCHAR
STARTCHAR Idieresis
ENCODING 207
SWIDTH 386 0
DWIDTH 6 0
BBX 8 14 1 0
BITMAP
33
31
3C
1C
1C
18
18
18
38
30
30
30
30
F8
ENDCHAR
STARTCHAR Eth
ENCODING 208
SWIDTH 780 0
DWIDTH 13 0
BBX 12 12 1 0
BITMAP
1FC0
0C60
0C30
0C30
1830
7F30
1830
1870
3860
38E0
39C0
FF00
ENDCHAR
STARTCHAR Ntilde
ENCODING 209
SWIDTH 741 0
DWIDTH 12 0
BBX 14 14 1 0
BITMAP
0730
00C0
3C1C
0E18
1610
1710
1710
1320
13A0
21A0
21E0
21E0
60C0
F0C0
ENDCHAR
STARTCHAR Ograve
ENCODING 210
SWIDTH 761 0
DWIDTH 13 0
BBX 11 15 2 0
BITMAP
1800
1F00
0000
0F80
38C0
7060
6060
E060
C060
C060
C0E0
C0C0
C1C0
6380
3E00
ENDCHAR
STARTCHAR Oacute
ENCODING 211
SWIDTH 761 0
DWIDTH 13 0
BBX 11 15 2 0
BITMAP
00C0
07C0
0000
0F80
38C0
7060
6060
E060
C060
C060
C0E0
C0C0
C1C0
6380
3E00
ENDCHAR
STARTCHAR Ocircumflex
ENCODING 212
SWIDTH 761 0
DWIDTH 13 0
BBX 11 15 2 0
BITMAP
0100
0FC0
1000
0780
38C0
7060
6060
E060
C060
C060
C0E0
C0C0
C1C0
6380
3E00
ENDCHAR
STARTCHAR Otilde
ENCODING 213
SWIDTH 761 0
DWIDTH 13 0
BBX 11 14 2 0
BITMAP
1E20
01C0
0F80
38C0
7060
6060
E060
C060
C060
C0E0
C0C0
C1C0
6380
3E00
ENDCHAR
STARTCHAR Odieresis
ENCODING 214
SWIDTH 761 0
DWIDTH 13 0
BBX 11 14 2 0
BITMAP
0CC0
0C40
0F00
38C0
7060
6060
E060
C060
C060
C0E0
C0C0
C1C0
6380
3E00
ENDCHAR
STARTCHAR multiply
ENCODING 215
SWIDTH 600 0
DWIDTH 10 0
BBX 7 8 3 0
BITMAP
82
C6
6C
38
38
6C
C6
82
ENDCHAR
STARTCHAR Oslash
ENCODING 216
SWIDTH 761 0
DWIDTH 13 0
BBX 11 13 2 -1
BITMAP
0FA0
38C0
70C0
6160
E260
E660
CC60
D8E0
D0C0
E1C0
6380
7E00
8000
ENDCHAR
STARTCHAR Ugrave
ENCODING 217
SWIDTH 776 0
DWIDTH 13 0
BBX 12 15 3 0
BITMAP
3800
1E00
0000
F9F0
70C0
60C0
61C0
61C0
6180
C180
C380
C380
C300
C600
3C00
ENDCHAR
STARTCHAR Uacute
ENCODING 218
SWIDTH 776 0
DWIDTH 13 0
BBX 12 15 3 0
BITMAP
00C0
0780
0000
F9F0
70C0
60C0
61C0
61C0
6180
C180
C380
C380
C300
C600
3C00
ENDCHAR
STARTCHAR Ucircumflex
ENCODING 219
SWIDTH 776 0
DWIDTH 13 0
BBX 12 15 3 0
BITMAP
0200
1F80
0000
F9F0
70C0
60C0
61C0
61C0
6180
C180
C380
C380
C300
C600
3C00
ENDCHAR
STARTCHAR Udieresis
ENCODING 220
SWIDTH 776 0
DWIDTH 13 0
BBX 11 14 3 0
BITMAP
1980
1980
F9E0
70C0
60C0
6180
6180
6180
E180
C180
C300
C300
E700
3C00
ENDCHAR
STARTCHAR Yacute
ENCODING 221
SWIDTH 622 0
DWIDTH 10 0
BBX 11 15 2 0
BITMAP
00C0
0780
0000
F9E0
3080
3180
3100
3A00
1C00
1C00
1800
1800
1800
3800
7C00
ENDCHAR
STARTCHAR Thorn
ENCODING 222
SWIDTH 629 0
DWIDTH 10 0
BBX 10 12 1 0
BITMAP
3E00
1C00
1C00
1F80
18C0
18C0
38C0
3980
3F00
3000
7000
F800
ENDCHAR
STARTCHAR germandbls
ENCODING 223
SWIDTH 628 0
DWIDTH 10 0
BBX 14 16 -2 -4
BITMAP
0078
018C
018C
030C
0F38
0720
0660
0670
0638
0E18
0CD8
0CF0
0C00
1800
D800
7000
ENDCHAR
STARTCHAR agrave
ENCODING 224
SWIDTH 596 0
DWIDTH 10 0
BBX 9 12 1 0
BITMAP
3000
1800
0E00
0000
0F80
3300
6300
6700
C600
CE00
D680
E700
ENDCHAR
STARTCHAR aacute
ENCODING 225
SWIDTH 596 0
DWIDTH 10 0
BBX 9 12 1 0
BITMAP
0180
0300
0E00
0000
0F80
3300
6300
6700
C600
CE00
D680
E700
ENDCHAR
STARTCHAR acircumflex
ENCODING 226
SWIDTH 596 0
DWIDTH 10 0
BBX 9 12 1 0
BITMAP
0200
0600
1900
0180
0F80
3300
6300
6700
C600
CE00
D680
E700
ENDCHAR
STARTCHAR atilde
ENCODING 227
SWIDTH 596 0
DWIDTH 10 0
BBX 9 12 1 0
BITMAP
0080
1F00
2000
0000
0F80
3300
6300
6700
C600
CE00
D680
E700
ENDCHAR
STARTCHAR adieresis
ENCODING 228
SWIDTH 596 0
DWIDTH 10 0
BBX 9 12 1 0
BITMAP
1980
1980
0000
0000
0F80
3300
6300
6700
C600
CE00
D680
E700
ENDCHAR
STARTCHAR aring
ENCODING 229
SWIDTH 596 0
DWIDTH 10 0
BBX 9 13 1 0
BITMAP
0600
0900
0900
0600
0000
0D80
3300
6300
6700
C600
CE00
D680
E700
ENDCHAR
STARTCHAR ae
ENCODING 230
SWIDTH 789 0
DWIDTH 13 0
BBX 13 9 1 0
BITMAP
0000
0F70
3198
6198
6330
C3C0
C710
DB10
E1E0
ENDCHAR
STARTCHAR ccedilla
ENCODING 231
SWIDTH 456 0
DWIDTH 8 0
BBX 8 12 1 -4
BITMAP
1E
33
62
C0
C0
C2
C4
78
20
38
18
70
ENDCHAR
STARTCHAR egrave
ENCODING 232
SWIDTH 476 0
DWIDTH 8 0
BBX 8 12 1 0
BITMAP
20
38
1E
00
1E
33
63
C6
F8
C2
C6
78
ENDCHAR
STARTCHAR eacute
ENCODING 233
SWIDTH 476 0
DWIDTH 8 0
BBX 9 12 1 0
BITMAP
0100
0380
0E00
0000
1E00
3300
6300
C600
F800
C200
C600
7800
ENDCHAR
STARTCHAR ecircumflex
ENCODING 234
SWIDTH 476 0
DWIDTH 8 0
BBX 8 12 1 0
BITMAP
06
0E
31
40
1E
33
63
C6
F8
C2
C6
78
ENDCHAR
STARTCHAR edieresis
ENCODING 235
SWIDTH 476 0
DWIDTH 8 0
BBX 8 12 1 0
BITMAP
33
33
00
00
1E
33
63
C6
F8
C2
C6
78
ENDCHAR
STARTCHAR igrave
ENCODING 236
SWIDTH 339 0
DWIDTH 6 0
BBX 4 12 2 0
BITMAP
80
C0
70
00
30
E0
60
60
60
C0
D0
E0
ENDCHAR
STARTCHAR iacute
ENCODING 237
SWIDTH 339 0
DWIDTH 6 0
BBX 5 12 2 0
BITMAP
08
18
70
00
30
E0
60
60
60
C0
D0
E0
ENDCHAR
STARTCHAR icircumflex
ENCODING 238
SWIDTH 339 0
DWIDTH 6 0
BBX 5 12 2 0
BITMAP
20
70
D8
88
20
E0
60
60
60
C0
D0
E0
ENDCHAR
STARTCHAR idieresis
ENCODING 239
SWIDTH 339 0
DWIDTH 6 0
BBX 6 12 2 0
BITMAP
CC
CC
00
00
10
F0
70
60
60
C8
D0
E0
ENDCHAR
STARTCHAR eth
ENCODING 240
SWIDTH 562 0
DWIDTH 9 0
BBX 9 12 1 0
BITMAP
1000
0D80
0E00
3300
0F00
7180
6180
E180
C380
C300
C700
7C00
ENDCHAR
STARTCHAR ntilde
ENCODING 241
SWIDTH 635 0
DWIDTH 11 0
BBX 10 12 1 0
BITMAP
0080
0F00
1000
0000
1380
7580
3980
3980
7300
7340
6340
E380
ENDCHAR
STARTCHAR ograve
ENCODING 242
SWIDTH 562 0
DWIDTH 9 0
BBX 9 12 1 0
BITMAP
3000
3800
0E00
0300
1F00
7180
6180
E180
C380
C300
C700
7C00
ENDCHAR
STARTCHAR oacute
ENCODING 243
SWIDTH 562 0
DWIDTH 9 0
BBX 9 12 1 0
BITMAP
0080
0180
0E00
0000
1F00
7180
6180
E180
C380
C300
C700
7C00
ENDCHAR
STARTCHAR ocircumflex
ENCODING 244
SWIDTH 562 0
DWIDTH 9 0
BBX 9 12 1 0
BITMAP
0600
0F00
3900
0000
1F00
7180
6180
E180
C380
C300
C700
7C00
ENDCHAR
STARTCHAR otilde
ENCODING 245
SWIDTH 562 0
DWIDTH 9 0
BBX 10 12 1 0
BITMAP
0040
0F80
1000
0000
1F00
7180
6180
E180
C380
C300
C700
7C00
ENDCHAR
STARTCHAR odieresis
ENCODING 246
SWIDTH 562 0
DWIDTH 9 0
BBX 9 12 1 0
BITMAP
1980
1980
0000
0000
1F00
7180
6180
E180
C380
C300
C700
7C00
ENDCHAR
STARTCHAR divide
ENCODING 247
SWIDTH 600 0
DWIDTH 10 0
BBX 8 7 2 0
BITMAP
18
18
00
FF
00
18
18
ENDCHAR
STARTCHAR oslash
ENCODING 248
SWIDTH 562 0
DWIDTH 9 0
BBX 9 10 1 -1
BITMAP
0100
1F00
7300
6780
E980
CB80
D300
6700
7C00
4000
ENDCHAR
STARTCHAR ugrave
ENCODING 249
SWIDTH 634 0
DWIDTH 11 0
BBX 9 12 2 0
BITMAP
2000
7000
1800
0400
3180
F300
6300
6300
6700
CE00
D680
E700
ENDCHAR
STARTCHAR uacute
ENCODING 250
SWIDTH 634 0
DWIDTH 11 0
BBX 9 12 2 0
BITMAP
0180
0380
0600
0400
3180
F300
6300
6300
6700
CE00
D680
E700
ENDCHAR
STARTCHAR ucircumflex
ENCODING 251
SWIDTH 634 0
DWIDTH 11 0
BBX 9 12 2 0
BITMAP
0400
0E00
3200
0000
3180
F300
6300
6300
6700
CE00
D680
E700
ENDCHAR
STARTCHAR udieresis
ENCODING 252
SWIDTH 634 0
DWIDTH 11 0
BBX 9 12 2 0
BITMAP
3300
3300
0000
0000
3180
F300
6300
6300
6700
CE00
D680
E700
ENDCHAR
STARTCHAR yacute
ENCODING 253
SWIDTH 489 0
DWIDTH 8 0
BBX 10 16 -1 -4
BITMAP
0040
01C0
0300
0200
3840
18C0
1CC0
0C80
0D80
0D00
0E00
0E00
0C00
0800
4800
F000
ENDCHAR
STARTCHAR thorn
ENCODING 254
SWIDTH 600 0
DWIDTH 10 0
BBX 10 16 0 -4
BITMAP
0400
3C00
1C00
1800
19C0
1AC0
1CC0
38C0
3980
3180
3300
7E00
6000
6000
6000
C000
ENDCHAR
STARTCHAR ydieresis
ENCODING 255
SWIDTH 489 0
DWIDTH 8 0
BBX 10 16 -1 -4
BITMAP
0CC0
0CC0
0000
0000
3840
18C0
1CC0
0C80
0D80
0D00
0E00
0E00
0C00
0800
4800
F000
ENDCHAR
STARTCHAR Amacron
ENCODING 256
SWIDTH 634 0
DWIDTH 11 0
BBX 12 14 -1 0
BITMAP
07C0
0000
01C0
01C0
03C0
03C0
05C0
04C0
08C0
0FC0
10C0
30E0
20E0
F1F0
ENDCHAR
STARTCHAR amacron
ENCODING 257
SWIDTH 596 0
DWIDTH 10 0
BBX 9 10 1 0
BITMAP
1F00
0000
0F80
3300
6300
6700
C600
CE00
D680
E700
ENDCHAR
STARTCHAR Abreve
ENCODING 258
SWIDTH 634 0
DWIDTH 11 0
BBX 12 16 -1 0
BITMAP
0020
0440
0380
0000
01C0
01C0
03C0
03C0
05C0
04C0
08C0
0FC0
10C0
30E0
20E0
F1F0
ENDCHAR
STARTCHAR abreve
ENCODING 259
SWIDTH 596 0
DWIDTH 10 0
BBX 9 12 1 0
BITMAP
0100
2200
1C00
0000
0F80
3300
6300
6700
C600
CE00
D680
E700
ENDCHAR
STARTCHAR Aogonek
ENCODING 260
SWIDTH 634 0
DWIDTH 11 0
BBX 12 16 -1 -4
BITMAP
01C0
01C0
03C0
03C0
05C0
04C0
08C0
0FC0
10C0
30E0
20E0
F1F0
0100
0200
0600
0380
ENDCHAR
STARTCHAR aogonek
ENCODING 261
SWIDTH 596 0
DWIDTH 10 0
BBX 9 12 1 -4
BITMAP
0F80
3300
6300
6700
C600
CE00
D680
E700
0800
1000
3000
1C00
ENDCHAR
STARTCHAR Cacute
ENCODING 262
SWIDTH 672 0
DWIDTH 11 0
BBX 11 17 2 0
BITMAP
0180
0380
0600
0800
0000
0780
18E0
3040
7040
6000
E000
E000
E000
E080
6080
7100
1E00
ENDCHAR
STARTCHAR cacute
ENCODING 263
SWIDTH 456 0
DWIDTH 8 0
BBX 8 13 1 0
BITMAP
03
07
0C
10
00
1E
33
62
C0
C0
C2
C4
78
ENDCHAR
STARTCHAR Ccircumflex
ENCODING 264
SWIDTH 672 0
DWIDTH 11 0
BBX 11 17 2 0
BITMAP
0200
0700
0900
1080
0000
0780
18E0
3040
7040
6000
E000
E000
E000
E080
6080
7100
1E00
ENDCHAR
STARTCHAR ccircumflex
ENCODING 265
SWIDTH 456 0
DWIDTH 8 0
BBX 8 13 1 0
BITMAP
08
1C
24
42
00
1E
33
62
C0
C0
C2
C4
78
ENDCHAR
STARTCHAR Cdotaccent
ENCODING 266
SWIDTH 672 0
DWIDTH 11 0
BBX 11 15 2 0
BITMAP
0600
0600
0000
0780
18E0
3040
7040
6000
E000
E000
E000
E080
6080
7100
1E00
ENDCHAR
STARTCHAR cdotaccent
ENCODING 267
SWIDTH 456 0
DWIDTH 8 0
BBX 8 11 1 0
BITMAP
18
18
00
1E
33
62
C0
C0
C2
C4
78
ENDCHAR
STARTCHAR Ccaron
ENCODING 268
SWIDTH 672 0
DWIDTH 11 0
BBX 11 17 2 0
BITMAP
1080
0900
0E00
0400
0000
0780
18E0
3040
7040
6000
E000
E000
E000
E080
6080
7100
1E00
ENDCHAR
STARTCHAR ccaron
ENCODING 269
SWIDTH 456 0
DWIDTH 8 0
BBX 8 13 1 0
BITMAP
21
12
1C
08
00
1E
33
62
C0
C0
C2
C4
78
ENDCHAR
STARTCHAR Dcaron
ENCODING 270
SWIDTH 774 0
DWIDTH 13 0
BBX 13 17 0 0
BITMAP
0420
0240
0380
0100
0000
1FC0
0C30
0C18
0C18
1818
1818
1818
1838
3830
3870
38E0
FF80
ENDCHAR
STARTCHAR dcaron
ENCODING 271
SWIDTH 825 0
DWIDTH 14 0
BBX 14 12 1 0
BITMAP
004C
01CC
00CC
01C8
0F90
3980
7180
6380
C300
C700
CB40
F380
ENDCHAR
STARTCHAR Dcroat
ENCODING 272
SWIDTH 780 0
DWIDTH 13 0
BBX 12 12 1 0
BITMAP
1FC0
0C60
0C30
0C30
1830
7F30
1830
1870
3860
38E0
39C0
FF00
ENDCHAR
STARTCHAR dcroat
ENCODING 273
SWIDTH 609 0
DWIDTH 10 0
BBX 11 12 1 0
BITMAP
0040
01C0
1FE0
01C0
0F80
3980
7180
6380
C300
C700
CB40
F380
ENDCHAR
STARTCHAR Emacron
ENCODING 274
SWIDTH 622 0
DWIDTH 10 0
BBX 11 14 1 0
BITMAP
1F00
0000
3FE0
1C60
1C20
1800
1880
3F80
3900
3100
3040
7080
7180
FF80
ENDCHAR
STARTCHAR emacron
ENCODING 275
SWIDTH 476 0
DWIDTH 8 0
BBX 8 10 1 0
BITMAP
3E
00
1E
33
63
C6
F8
C2
C6
78
ENDCHAR
STARTCHAR Ebreve
ENCODING 276
SWIDTH 622 0
DWIDTH 10 0
BBX 11 16 1 0
BITMAP
0080
1100
0E00
0000
3FE0
1C60
1C20
1800
1880
3F80
3900
3100
3040
7080
7180
FF80
ENDCHAR
STARTCHAR ebreve
ENCODING 277
SWIDTH 476 0
DWIDTH 8 0
BBX 8 12 1 0
BITMAP
01
22
1C
00
1E
33
63
C6
F8
C2
C6
78
ENDCHAR
STARTCHAR Edotaccent
ENCODING 278
SWIDTH 622 0
DWIDTH 10 0
BBX 11 15 1 0
BITMAP
0600
0600
0000
3FE0
1C60
1C20
1800
1880
3F80
3900
3100
3040
7080
7180
FF80
ENDCHAR
STARTCHAR edotaccent
ENCODING 279
SWIDTH 476 0
DWIDTH 8 0
BBX 8 11 1 0
BITMAP
0C
0C
00
1E
33
63
C6
F8
C2
C6
78
ENDCHAR
STARTCHAR Eogonek
ENCODING 280
SWIDTH 622 0
DWIDTH 10 0
BBX 11 16 1 -4
BITMAP
3FE0
1C60
1C20
1800
1880
3F80
3900
3100
3040
7080
7180
FF80
0400
0800
1800
0E00
ENDCHAR
STARTCHAR eogonek
ENCODING 281
SWIDTH 476 0
DWIDTH 8 0
BBX 8 12 1 -4
BITMAP
1E
33
63
C6
F8
C2
C6
78
10
20
60
38
ENDCHAR
STARTCHAR Ecaron
ENCODING 282
SWIDTH 622 0
DWIDTH 10 0
BBX 11 17 1 0
BITMAP
1080
0900
0E00
0400
0000
3FE0
1C60
1C20
1800
1880
3F80
3900
3100
3040
7080
7180
FF80
ENDCHAR
STARTCHAR ecaron
ENCODING 283
SWIDTH 476 0
DWIDTH 8 0
BBX 8 13 1 0
BITMAP
21
12
1C
08
00
1E
33
63
C6
F8
C2
C6
78
ENDCHAR
STARTCHAR Gcircumflex
ENCODING 284
SWIDTH 726 0
DWIDTH 12 0
BBX 11 17 2 0
BITMAP
0200
0700
0900
1080
0000
07C0
1860
3020
7020
E000
E000
E3E0
E1C0
E1C0
61C0
7180
1F00
ENDCHAR
STARTCHAR gcircumflex
ENCODING 285
SWIDTH 522 0
DWIDTH 9 0
BBX 11 17 0 -4
BITMAP
0200
0700
0900
1080
0000
0F60
1980
3180
3380
1E00
3000
3E00
3F80
C380
C180
E100
3E00
ENDCHAR
STARTCHAR Gbreve
ENCODING 286
SWIDTH 726 0
DWIDTH 12 0
BBX 11 16 2 0
BITMAP
0080
1100
0E00
0000
07C0
1860
3020
7020
E000
E000
E3E0
E1C0
E1C0
61C0
7180
1F00
ENDCHAR
STARTCHAR gbreve
ENCODING 287
SWIDTH 522 0
DWIDTH 9 0
BBX 11 16 0 -4
BITMAP
0080
1100
0E00
0000
0F60
1980
3180
3380
1E00
3000
3E00
3F80
C380
C180
E100
3E00
ENDCHAR
STARTCHAR Gdotaccent
ENCODING 288
SWIDTH 726 0
DWIDTH 12 0
BBX 11 15 2 0
BITMAP
0600
0600
0000
07C0
1860
3020
7020
E000
E000
E3E0
E1C0
E1C0
61C0
7180
1F00
ENDCHAR
STARTCHAR gdotaccent
ENCODING 289
SWIDTH 522 0
DWIDTH 9 0
BBX 11 15 0 -4
BITMAP
0600
0600
0000
0F60
1980
3180
3380
1E00
3000
3E00
3F80
C380
C180
E100
3E00
ENDCHAR
STARTCHAR Gcommaaccent
ENCODING 290
SWIDTH 726 0
DWIDTH 12 0
BBX 11 19 2 -7
BITMAP
07C0
1860
3020
7020
E000
E000
E3E0
E1C0
E1C0
61C0
7180
1F00
0000
0600
0600
0600
0400
0400
0800
ENDCHAR
STARTCHAR gcommaaccent
ENCODING 291
SWIDTH 522 0
DWIDTH 9 0
BBX 11 18 0 -4
BITMAP
0100
0200
0600
0600
0600
0000
0F60
1980
3180
3380
1E00
3000
3E00
3F80
C380
C180
E100
3E00
ENDCHAR
STARTCHAR Hcircumflex
ENCODING 292
SWIDTH 800 0
DWIDTH 13 0
BBX 15 17 0 0
BITMAP
0080
01C0
0240
0420
0000
3F7E
0C18
0C38
1C38
1C38
1FF0
1830
3870
3870
3860
3060
FDF0
ENDCHAR
STARTCHAR hcircumflex
ENCODING 293
SWIDTH 629 0
DWIDTH 10 0
BBX 10 17 1 0
BITMAP
0800
1C00
2400
4200
0000
0C00
3800
1800
3800
3380
3580
3980
3180
7100
6340
6340
E380
ENDCHAR
STARTCHAR Hbar
ENCODING 294
SWIDTH 800 0
DWIDTH 13 0
BBX 15 12 0 0
BITMAP
3F7E
0C18
0C38
FFFE
1C38
1FF0
1830
3870
3870
3860
3060
FDF0
ENDCHAR
STARTCHAR hbar
ENCODING 295
SWIDTH 629 0
DWIDTH 10 0
BBX 11 12 0 0
BITMAP
0600
1C00
FF00
1C00
19C0
1AC0
1CC0
18C0
3880
31A0
31A0
71C0
ENDCHAR
STARTCHAR Itilde
ENCODING 296
SWIDTH 386 0
DWIDTH 6 0
BBX 8 15 1 0
BITMAP
39
4E
00
3F
0C
0C
1C
1C
18
18
38
38
30
30
FC
ENDCHAR
STARTCHAR itilde
ENCODING 297
SWIDTH 339 0
DWIDTH 6 0
BBX 7 11 1 0
BITMAP
72
9C
00
18
70
30
30
30
60
68
70
ENDCHAR
STARTCHAR Imacron
ENCODING 298
SWIDTH 386 0
DWIDTH 6 0
BBX 8 14 1 0
BITMAP
3E
00
3F
0C
0C
1C
1C
18
18
38
38
30
30
FC
ENDCHAR
STARTCHAR imacron
ENCODING 299
SWIDTH 339 0
DWIDTH 6 0
BBX 5 10 2 0
BITMAP
F8
00
30
E0
60
60
60
C0
D0
E0
ENDCHAR
STARTCHAR Ibreve
ENCODING 300
SWIDTH 386 0
DWIDTH 6 0
BBX 8 16 1 0
BITMAP
01
22
1C
00
3F
0C
0C
1C
1C
18
18
38
38
30
30
FC
ENDCHAR
STARTCHAR ibreve
ENCODING 301
SWIDTH 339 0
DWIDTH 6 0
BBX 6 12 1 0
BITMAP
04
88
70
00
18
70
30
30
30
60
68
70
ENDCHAR
STARTCHAR Iogonek
ENCODING 302
SWIDTH 386 0
DWIDTH 6 0
BBX 8 16 1 -4
BITMAP
3F
0C
0C
1C
1C
18
18
38
38
30
30
FC
10
20
60
38
ENDCHAR
STARTCHAR iogonek
ENCODING 303
SWIDTH 339 0
DWIDTH 6 0
BBX 5 16 2 -4
BITMAP
18
38
10
00
30
E0
60
60
60
C0
D0
E0
20
40
C0
70
ENDCHAR
STARTCHAR Idotaccent
ENCODING 304
SWIDTH 386 0
DWIDTH 6 0
BBX 8 15 1 0
BITMAP
0C
0C
00
3F
0C
0C
1C
1C
18
18
38
38
30
30
FC
ENDCHAR
STARTCHAR dotlessi
ENCODING 305
SWIDTH 339 0
DWIDTH 6 0
BBX 4 8 2 0
BITMAP
30
E0
60
60
60
C0
D0
E0
ENDCHAR
STARTCHAR IJ
ENCODING 306
SWIDTH 755 0
DWIDTH 12 0
BBX 14 14 1 -2
BITMAP
3F7C
0C30
0C30
1C70
1C70
1860
1860
38E0
38E0
30E0
30C0
FDC0
0380
0700
ENDCHAR
STARTCHAR ij
ENCODING 307
SWIDTH 655 0
DWIDTH 12 0
BBX 11 16 2 -4
BITMAP
1860
38E0
1040
0000
30C0
E380
6180
6180
6180
C180
D380
E300
0300
0300
1A00
1C00
ENDCHAR
STARTCHAR Jcircumflex
ENCODING 308
SWIDTH 388 0
DWIDTH 6 0
BBX 9 19 0 -2
BITMAP
0200
0700
0900
1080
0000
0F80
0600
0600
0E00
0E00
0C00
0C00
1C00
1C00
1C00
1800
3800
7000
E000
ENDCHAR
STARTCHAR jcircumflex
ENCODING 309
SWIDTH 333 0
DWIDTH 6 0
BBX 8 17 -1 -4
BITMAP
04
0E
12
21
00
06
1C
0C
0C
0C
0C
1C
18
18
18
D0
E0
ENDCHAR
STARTCHAR Kcommaaccent
ENCODING 310
SWIDTH 688 0
DWIDTH 11 0
BBX 13 19 1 -7
BITMAP
3E78
1C60
1CC0
1980
1A00
3E00
3F00
3700
3780
7380
61C0
F8E0
0000
0600
0600
0600
0400
0400
0800
ENDCHAR
STARTCHAR kcommaaccent
ENCODING 311
SWIDTH 570 0
DWIDTH 9 0
BBX 10 19 1 -7
BITMAP
1800
7800
3000
3000
31C0
3380
7400
6400
6C00
6C00
E580
C700
0000
1800
1800
1800
1000
1000
2000
ENDCHAR
STARTCHAR kgreenlandic
ENCODING 312
SWIDTH 570 0
DWIDTH 9 0
BBX 10 8 1 0
BITMAP
31C0
3380
7400
6400
6C00
6C00
E580
C700
ENDCHAR
STARTCHAR Lacute
ENCODING 313
SWIDTH 586 0
DWIDTH 10 0
BBX 10 17 1 0
BITMAP
0300
0700
0C00
1000
0000
3F00
0C00
1C00
1C00
1C00
1800
3800
3800
3840
7040
7080
FF80
ENDCHAR
STARTCHAR lacute
ENCODING 314
SWIDTH 327 0
DWIDTH 5 0
BBX 6 17 2 0
BITMAP
0C
1C
30
40
00
18
70
30
30
60
60
60
60
40
C0
D0
E0
ENDCHAR
STARTCHAR Lcommaaccent
ENCODING 315
SWIDTH 586 0
DWIDTH 10 0
BBX 10 19 1 -7
BITMAP
3F00
0C00
1C00
1C00
1C00
1800
3800
3800
3840
7040
7080
FF80
0000
0C00
0C00
0C00
0800
0800
1000
ENDCHAR
STARTCHAR lcommaaccent
ENCODING 316
SWIDTH 327 0
DWIDTH 5 0
BBX 5 19 2 -7
BITMAP
18
70
30
30
60
60
60
60
40
C0
D0
E0
00
60
60
60
40
40
80
ENDCHAR
STARTCHAR Lcaron
ENCODING 317
SWIDTH 803 0
DWIDTH 14 0
BBX 14 12 1 0
BITMAP
3F0C
0C0C
1C0C
1C08
1C10
1800
3800
3800
3840
7040
7080
FF80
ENDCHAR
STARTCHAR lcaron
ENCODING 318
SWIDTH 557 0
DWIDTH 9 0
BBX 8 12 2 0
BITMAP
1B
73
33
32
64
60
60
60
40
C0
D0
E0
ENDCHAR
STARTCHAR Ldot
ENCODING 319
SWIDTH 837 0
DWIDTH 15 0
BBX 14 12 1 0
BITMAP
3F00
0C00
1C00
1C00
1C00
1800
380C
381C
3858
7040
7080
FF80
ENDCHAR
STARTCHAR ldot
ENCODING 320
SWIDTH 591 0
DWIDTH 10 0
BBX 8 12 2 0
BITMAP
18
70
30
30
60
60
63
67
46
C0
D0
E0
ENDCHAR
STARTCHAR Lslash
ENCODING 321
SWIDTH 592 0
DWIDTH 10 0
BBX 10 12 1 0
BITMAP
3F00
0C00
1C00
1D00
1E00
1C00
1800
7800
B040
3080
7180
FF80
ENDCHAR
STARTCHAR lslash
ENCODING 322
SWIDTH 339 0
DWIDTH 6 0
BBX 7 12 1 0
BITMAP
0C
38
18
18
3A
3C
30
F0
20
60
68
70
ENDCHAR
STARTCHAR Nacute
ENCODING 323
SWIDTH 741 0
DWIDTH 12 0
BBX 14 17 1 0
BITMAP
0060
00E0
0180
0200
0000
3C3C
0E18
1610
1710
1710
1320
13A0
21A0
21E0
21E0
60C0
F0C0
ENDCHAR
STARTCHAR nacute
ENCODING 324
SWIDTH 635 0
DWIDTH 11 0
BBX 10 13 1 0
BITMAP
0300
0700
0C00
1000
0000
1380
7580
3980
3980
7300
7340
6340
E380
ENDCHAR
STARTCHAR Ncommaaccent
ENCODING 325
SWIDTH 741 0
DWIDTH 12 0
BBX 14 19 1 -7
BITMAP
3C3C
0E18
1610
1710
1710
1320
13A0
21A0
21E0
21E0
60C0
F0C0
0000
0300
0300
0300
0200
0200
0400
ENDCHAR
STARTCHAR ncommaaccent
ENCODING 326
SWIDTH 635 0
DWIDTH 11 0
BBX 10 15 1 -7
BITMAP
1380
7580
3980
3980
7300
7340
6340
E380
0000
0C00
0C00
0C00
0800
0800
1000
ENDCHAR
STARTCHAR Ncaron
ENCODING 327
SWIDTH 741 0
DWIDTH 12 0
BBX 14 17 1 0
BITMAP
0420
0240
0380
0100
0000
3C3C
0E18
1610
1710
1710
1320
13A0
21A0
21E0
21E0
60C0
F0C0
ENDCHAR
STARTCHAR ncaron
ENCODING 328
SWIDTH 635 0
DWIDTH 11 0
BBX 10 13 1 0
BITMAP
1080
0900
0E00
0400
0000
1380
7580
3980
3980
7300
7340
6340
E380
ENDCHAR
STARTCHAR napostrophe
ENCODING 329
SWIDTH 869 0
DWIDTH 15 0
BBX 13 12 2 0
BITMAP
6000
6000
6000
4000
8270
0EB0
0730
0730
0E60
0E68
0C68
1C70
ENDCHAR
STARTCHAR Eng
ENCODING 330
SWIDTH 741 0
DWIDTH 12 0
BBX 14 16 1 -4
BITMAP
3C3C
0E18
1610
1710
1710
1320
13A0
21A0
21E0
21E0
60E0
F0C0
00C0
00C0
0680
0700
ENDCHAR
STARTCHAR eng
ENCODING 331
SWIDTH 635 0
DWIDTH 11 0
BBX 9 12 1 -4
BITMAP
1380
7580
3980
3980
7300
7300
6700
E600
0600
0600
3400
3800
ENDCHAR
STARTCHAR Omacron
ENCODING 332
SWIDTH 761 0
DWIDTH 13 0
BBX 11 14 2 0
BITMAP
1F00
0000
0F80
38C0
7060
6060
E060
C060
C060
C0E0
C0C0
C1C0
6380
3E00
ENDCHAR
STARTCHAR omacron
ENCODING 333
SWIDTH 562 0
DWIDTH 9 0
BBX 9 10 1 0
BITMAP
3E00
0000
1F00
7180
6180
E180
C380
C300
C700
7C00
ENDCHAR
STARTCHAR Obreve
ENCODING 334
SWIDTH 761 0
DWIDTH 13 0
BBX 11 16 2 0
BITMAP
0080
1100
0E00
0000
0F80
38C0
7060
6060
E060
C060
C060
C0E0
C0C0
C1C0
6380
3E00
ENDCHAR
STARTCHAR obreve
ENCODING 335
SWIDTH 562 0
DWIDTH 9 0
BBX 9 12 1 0
BITMAP
0100
2200
1C00
0000
1F00
7180
6180
E180
C380
C300
C700
7C00
ENDCHAR
STARTCHAR Ohungarumlaut
ENCODING 336
SWIDTH 761 0
DWIDTH 13 0
BBX 11 16 2 0
BITMAP
0480
0500
0900
0000
0F80
38C0
7060
6060
E060
C060
C060
C0E0
C0C0
C1C0
6380
3E00
ENDCHAR
STARTCHAR ohungarumlaut
ENCODING 337
SWIDTH 562 0
DWIDTH 9 0
BBX 9 12 1 0
BITMAP
0900
0A00
1200
0000
1F00
7180
6180
E180
C380
C300
C700
7C00
ENDCHAR
STARTCHAR OE
ENCODING 338
SWIDTH 1016 0
DWIDTH 17 0
BBX 16 12 2 0
BITMAP
0FFF
38E3
70C1
60C0
E1C4
C1F8
C1C8
C188
C182
4384
638C
1FFC
ENDCHAR
STARTCHAR oe
ENCODING 339
SWIDTH 811 0
DWIDTH 14 0
BBX 13 8 1 0
BITMAP
1E70
7398
6398
E330
C7C0
C710
CF30
79C0
ENDCHAR
STARTCHAR Racute
ENCODING 340
SWIDTH 681 0
DWIDTH 11 0
BBX 11 17 1 0
BITMAP
00C0
01C0
0300
0400
0000
1FC0
0C60
0C60
0C60
1860
18C0
1F00
1980
1980
3980
3980
F8C0
ENDCHAR
STARTCHAR racute
ENCODING 341
SWIDTH 440 0
DWIDTH 7 0
BBX 8 13 1 0
BITMAP
06
0E
18
20
00
33
7F
30
30
70
70
60
E0
ENDCHAR
STARTCHAR Rcommaaccent
ENCODING 342
SWIDTH 681 0
DWIDTH 11 0
BBX 11 19 1 -7
BITMAP
1FC0
0C60
0C60
0C60
1860
18C0
1F00
1980
1980
3980
3980
F8C0
0000
0C00
0C00
0C00
0800
0800
1000
ENDCHAR
STARTCHAR rcommaaccent
ENCODING 343
SWIDTH 440 0
DWIDTH 7 0
BBX 8 15 1 -7
BITMAP
33
7F
30
30
70
70
60
E0
00
30
30
30
20
20
40
ENDCHAR
STARTCHAR Rcaron
ENCODING 344
SWIDTH 681 0
DWIDTH 11 0
BBX 11 17 1 0
BITMAP
0840
0480
0700
0200
0000
1FC0
0C60
0C60
0C60
1860
18C0
1F00
1980
1980
3980
3980
F8C0
ENDCHAR
STARTCHAR rcaron
ENCODING 345
SWIDTH 440 0
DWIDTH 7 0
BBX 8 13 1 0
BITMAP
21
12
1C
08
00
33
7F
30
30
70
70
60
E0
ENDCHAR
STARTCHAR Sacute
ENCODING 346
SWIDTH 551 0
DWIDTH 9 0
BBX 9 17 2 0
BITMAP
0300
0700
0C00
1000
0000
1E00
2380
6100
6100
7000
3C00
1C00
0E00
8600
8600
C400
7800
ENDCHAR
STARTCHAR sacute
ENCODING 347
SWIDTH 417 0
DWIDTH 7 0
BBX 7 13 1 0
BITMAP
06
0E
18
20
00
3C
66
60
78
3C
8C
CC
78
ENDCHAR
STARTCHAR Scircumflex
ENCODING 348
SWIDTH 551 0
DWIDTH 9 0
BBX 9 17 2 0
BITMAP
0400
0E00
1200
2100
0000
1E00
2380
6100
6100
7000
3C00
1C00
0E00
8600
8600
C400
7800
ENDCHAR
STARTCHAR scircumflex
ENCODING 349
SWIDTH 417 0
DWIDTH 7 0
BBX 7 13 1 0
BITMAP
08
1C
24
42
00
3C
66
60
78
3C
8C
CC
78
ENDCHAR
STARTCHAR Scedilla
ENCODING 350
SWIDTH 551 0
DWIDTH 9 0
BBX 9 16 2 -4
BITMAP
1E00
2380
6100
6100
7000
3C00
1C00
0E00
8600
8600
C400
7800
1000
1C00
0C00
3800
ENDCHAR
STARTCHAR scedilla
ENCODING 351
SWIDTH 417 0
DWIDTH 7 0
BBX 7 12 1 -4
BITMAP
3C
66
60
78
3C
8C
CC
78
20
38
18
70
ENDCHAR
STARTCHAR Scaron
ENCODING 352
SWIDTH 551 0
DWIDTH 9 0
BBX 9 15 2 0
BITMAP
1180
0E00
0C00
1E00
2380
6100
6100
7000
3C00
1C00
0E00
8600
8600
C400
7800
ENDCHAR
STARTCHAR scaron
ENCODING 353
SWIDTH 417 0
DWIDTH 7 0
BBX 8 13 1 0
BITMAP
21
32
1C
08
00
3C
66
60
78
3C
8C
CC
78
ENDCHAR
STARTCHAR Tcommaaccent
ENCODING 354
SWIDTH 616 0
DWIDTH 10 0
BBX 11 16 2 -4
BITMAP
7FE0
4E40
8E40
0C00
1C00
1C00
1C00
1800
1800
3800
3800
FC00
1000
1C00
0C00
3800
ENDCHAR
STARTCHAR tcommaaccent
ENCODING 355
SWIDTH 359 0
DWIDTH 6 0
BBX 6 14 2 -4
BITMAP
30
70
FC
60
60
60
40
D0
D0
E0
40
70
30
E0
ENDCHAR
STARTCHAR Tcaron
ENCODING 356
SWIDTH 616 0
DWIDTH 10 0
BBX 11 17 2 0
BITMAP
1080
0900
0E00
0400
0000
7FE0
4E40
8E40
0C00
1C00
1C00
1C00
1800
1800
3800
3800
FC00
ENDCHAR
STARTCHAR tcaron
ENCODING 357
SWIDTH 587 0
DWIDTH 10 0
BBX 9 12 2 0
BITMAP
0180
0180
3180
7100
FE00
6000
6000
6000
4000
D000
D000
E000
ENDCHAR
STARTCHAR Tbar
ENCODING 358
SWIDTH 616 0
DWIDTH 10 0
BBX 11 12 2 0
BITMAP
7FE0
4E40
8E40
0C00
1C00
3FC0
1C00
1800
1800
3800
3800
FC00
ENDCHAR
STARTCHAR tbar
ENCODING 359
SWIDTH 359 0
DWIDTH 6 0
BBX 8 10 1 0
BITMAP
18
38
7E
30
30
FF
20
68
68
70
ENDCHAR
STARTCHAR Utilde
ENCODING 360
SWIDTH 776 0
DWIDTH 13 0
BBX 12 15 3 0
BITMAP
1C80
2700
0000
F9F0
70C0
60C0
61C0
61C0
6180
C180
C380
C380
C300
C600
3C00
ENDCHAR
STARTCHAR utilde
ENCODING 361
SWIDTH 634 0
DWIDTH 11 0
BBX 9 11 2 0
BITMAP
3900
4E00
0000
3180
F300
6300
6300
6700
CE00
D680
E700
ENDCHAR
STARTCHAR Umacron
ENCODING 362
SWIDTH 776 0
DWIDTH 13 0
BBX 12 14 3 0
BITMAP
1F00
0000
F9F0
70C0
60C0
61C0
61C0
6180
C180
C380
C380
C300
C600
3C00
ENDCHAR
STARTCHAR umacron
ENCODING 363
SWIDTH 634 0
DWIDTH 11 0
BBX 9 10 2 0
BITMAP
3E00
0000
3180
F300
6300
6300
6700
CE00
D680
E700
ENDCHAR
STARTCHAR Ubreve
ENCODING 364
SWIDTH 776 0
DWIDTH 13 0
BBX 12 16 3 0
BITMAP
0080
1100
0E00
0000
F9F0
70C0
60C0
61C0
61C0
6180
C180
C380
C380
C300
C600
3C00
ENDCHAR
STARTCHAR ubreve
ENCODING 365
SWIDTH 634 0
DWIDTH 11 0
BBX 9 12 2 0
BITMAP
0100
2200
1C00
0000
3180
F300
6300
6300
6700
CE00
D680
E700
ENDCHAR
STARTCHAR Uring
ENCODING 366
SWIDTH 776 0
DWIDTH 13 0
BBX 12 17 3 0
BITMAP
0E00
1100
1100
0E00
0000
F9F0
70C0
60C0
61C0
61C0
6180
C180
C380
C380
C300
C600
3C00
ENDCHAR
STARTCHAR uring
ENCODING 367
SWIDTH 634 0
DWIDTH 11 0
BBX 9 13 2 0
BITMAP
1C00
2200
2200
1C00
0000
3180
F300
6300
6300
6700
CE00
D680
E700
ENDCHAR
STARTCHAR Uhungarumlaut
ENCODING 368
SWIDTH 776 0
DWIDTH 13 0
BBX 12 16 3 0
BITMAP
0480
0500
0900
0000
F9F0
70C0
60C0
61C0
61C0
6180
C180
C380
C380
C300
C600
3C00
ENDCHAR
STARTCHAR uhungarumlaut
ENCODING 369
SWIDTH 634 0
DWIDTH 11 0
BBX 9 12 2 0
BITMAP
1200
1400
2400
0000
3180
F300
6300
6300
6700
CE00
D680
E700
ENDCHAR
STARTCHAR Uogonek
ENCODING 370
SWIDTH 776 0
DWIDTH 13 0
BBX 12 16 3 -4
BITMAP
F9F0
70C0
60C0
61C0
61C0
6180
C180
C380
C380
C300
C600
3C00
0400
0800
1800
0E00
ENDCHAR
STARTCHAR uogonek
ENCODING 371
SWIDTH 634 0
DWIDTH 11 0
BBX 9 12 2 -4
BITMAP
3180
F300
6300
6300
6700
CE00
D680
E700
0800
1000
3000
1C00
ENDCHAR
STARTCHAR Wcircumflex
ENCODING 372
SWIDTH 920 0
DWIDTH 15 0
BBX 16 17 2 0
BITMAP
0100
0380
0480
0840
0000
F007
6182
6382
6384
6784
6588
65C8
69D8
69D0
70E0
70E0
60C0
ENDCHAR
STARTCHAR wcircumflex
ENCODING 373
SWIDTH 795 0
DWIDTH 13 0
BBX 12 13 2 0
BITMAP
0200
0700
0900
1080
0000
2330
E330
6330
6630
C620
CE40
D680
E700
ENDCHAR
STARTCHAR Ycircumflex
ENCODING 374
SWIDTH 622 0
DWIDTH 10 0
BBX 11 17 2 0
BITMAP
0400
0E00
1200
2100
0000
F9E0
3080
3180
3100
3A00
1C00
1C00
1800
1800
1800
3800
7C00
ENDCHAR
STARTCHAR ycircumflex
ENCODING 375
SWIDTH 489 0
DWIDTH 8 0
BBX 10 17 -1 -4
BITMAP
0200
0700
0900
1080
0000
3840
18C0
1CC0
0C80
0D80
0D00
0E00
0E00
0C00
0800
4800
F000
ENDCHAR
STARTCHAR Ydieresis
ENCODING 376
SWIDTH 622 0
DWIDTH 10 0
BBX 11 14 2 0
BITMAP
1980
1980
F9E0
30C0
3180
3100
3200
1C00
1C00
1800
1800
1800
3000
7C00
ENDCHAR
STARTCHAR Zacute
ENCODING 377
SWIDTH 618 0
DWIDTH 10 0
BBX 12 17 0 0
BITMAP
00C0
01C0
0300
0400
0000
1FF0
1870
10E0
01C0
0380
0700
0E00
1E00
1C20
3840
70C0
FFC0
ENDCHAR
STARTCHAR zacute
ENCODING 378
SWIDTH 466 0
DWIDTH 8 0
BBX 9 13 0 0
BITMAP
0300
0700
0C00
1000
0000
1F80
3F00
4600
0C00
1800
3100
7F00
CE00
ENDCHAR
STARTCHAR Zdotaccent
ENCODING 379
SWIDTH 618 0
DWIDTH 10 0
BBX 12 15 0 0
BITMAP
0300
0300
0000
1FF0
1870
10E0
01C0
0380
0700
0E00
1E00
1C20
3840
70C0
FFC0
ENDCHAR
STARTCHAR zdotaccent
ENCODING 380
SWIDTH 466 0
DWIDTH 8 0
BBX 9 11 0 0
BITMAP
0C00
0C00
0000
1F80
3F00
4600
0C00
1800
3100
7F00
CE00
ENDCHAR
STARTCHAR Zcaron
ENCODING 381
SWIDTH 618 0
DWIDTH 10 0
BBX 12 15 0 0
BITMAP
0620
03C0
0000
1FF0
1870
10E0
01C0
0380
0700
0E00
1E00
1C20
3840
70C0
FFC0
ENDCHAR
STARTCHAR zcaron
ENCODING 382
SWIDTH 466 0
DWIDTH 8 0
BBX 9 13 0 0
BITMAP
1080
1900
0E00
0400
0000
3F80
3F00
4600
0C00
1000
2100
7F00
CE00
ENDCHAR
STARTCHAR uni0186
ENCODING 390
SWIDTH 672 0
DWIDTH 11 0
BBX 11 12 2 0
BITMAP
0F00
11C0
20C0
20E0
00E0
00E0
00E0
00C0
41C0
4180
E300
3C00
ENDCHAR
STARTCHAR uni0189
ENCODING 393
SWIDTH 780 0
DWIDTH 13 0
BBX 12 12 1 0
BITMAP
1FC0
0C60
0C30
0C30
1830
7F30
1830
1870
3860
38E0
39C0
FF00
ENDCHAR
STARTCHAR uni018E
ENCODING 398
SWIDTH 622 0
DWIDTH 10 0
BBX 11 12 1 0
BITMAP
3FE0
31C0
21C0
4180
1180
1380
3F80
2300
0300
8700
C700
FF80
ENDCHAR
STARTCHAR florin
ENCODING 402
SWIDTH 560 0
DWIDTH 9 0
BBX 11 14 0 -2
BITMAP
01C0
0360
0640
0600
0E00
3F80
0E00
0C00
0C00
1C00
1800
1800
D000
6000
ENDCHAR
STARTCHAR uni0197
ENCODING 407
SWIDTH 386 0
DWIDTH 6 0
BBX 8 12 1 0
BITMAP
3F
0C
0C
1C
1C
FF
18
38
38
30
30
FC
ENDCHAR
STARTCHAR uni019A
ENCODING 410
SWIDTH 327 0
DWIDTH 5 0
BBX 8 12 1 0
BITMAP
0C
38
18
18
30
FF
30
30
20
60
68
70
ENDCHAR
STARTCHAR uni019D
ENCODING 413
SWIDTH 741 0
DWIDTH 12 0
BBX 16 16 -1 -4
BITMAP
0F0F
0386
0584
05C4
05C4
04C8
04E8
0868
0C78
0C38
1C30
1830
1800
1800
D000
E000
ENDCHAR
STARTCHAR uni019F
ENCODING 415
SWIDTH 761 0
DWIDTH 13 0
BBX 11 12 2 0
BITMAP
0F80
38C0
7060
6060
E060
FFE0
C060
C0E0
C0C0
C1C0
6380
3E00
ENDCHAR
STARTCHAR Ohorn
ENCODING 416
SWIDTH 761 0
DWIDTH 13 0
BBX 13 12 2 0
BITMAP
0F98
38D8
7078
6070
E060
C060
C060
C0E0
C0C0
C1C0
6380
3E00
ENDCHAR
STARTCHAR ohorn
ENCODING 417
SWIDTH 562 0
DWIDTH 9 0
BBX 11 8 1 0
BITMAP
1F60
71E0
61E0
E1C0
C380
C300
C700
7C00
ENDCHAR
STARTCHAR Uhorn
ENCODING 431
SWIDTH 776 0
DWIDTH 13 0
BBX 14 12 3 0
BITMAP
F9FC
70CC
60CC
61C8
61D0
6180
C180
C380
C380
C300
C600
3C00
ENDCHAR
STARTCHAR uhorn
ENCODING 432
SWIDTH 634 0
DWIDTH 11 0
BBX 11 8 2 0
BITMAP
31E0
F360
6360
6340
6780
CE00
D680
E700
ENDCHAR
STARTCHAR uni01B5
ENCODING 437
SWIDTH 618 0
DWIDTH 10 0
BBX 12 12 0 0
BITMAP
1FF0
1870
10E0
01C0
0380
3FC0
0E00
1E00
1C20
3840
70C0
FFC0
ENDCHAR
STARTCHAR uni01B6
ENCODING 438
SWIDTH 466 0
DWIDTH 8 0
BBX 9 8 0 0
BITMAP
1F80
3F00
4600
7F80
1800
3100
7F00
CE00
ENDCHAR
STARTCHAR uni01BB
ENCODING 443
SWIDTH 560 0
DWIDTH 9 0
BBX 9 11 1 0
BITMAP
0F00
1980
3180
1180
0380
FF80
0C00
1800
6100
7F00
FF00
ENDCHAR
STARTCHAR uni01BC
ENCODING 444
SWIDTH 560 0
DWIDTH 9 0
BBX 9 11 1 0
BITMAP
1F80
1F00
3000
2000
3E00
2300
0300
0300
C300
E600
3C00
ENDCHAR
STARTCHAR uni01C0
ENCODING 448
SWIDTH 265 0
DWIDTH 4 0
BBX 2 12 2 0
BITMAP
C0
C0
C0
C0
C0
C0
C0
C0
C0
C0
C0
C0
ENDCHAR
STARTCHAR uni01C2
ENCODING 450
SWIDTH 600 0
DWIDTH 10 0
BBX 8 12 2 -2
BITMAP
18
18
18
18
FF
18
18
FF
18
18
18
18
ENDCHAR
STARTCHAR uni01C3
ENCODING 451
SWIDTH 285 0
DWIDTH 5 0
BBX 5 12 1 0
BITMAP
38
38
30
30
30
20
20
20
00
E0
E0
C0
ENDCHAR
STARTCHAR uni01CD
ENCODING 461
SWIDTH 634 0
DWIDTH 11 0
BBX 12 17 -1 0
BITMAP
0420
0240
0380
0100
0000
01C0
01C0
03C0
03C0
05C0
04C0
08C0
0FC0
10C0
30E0
20E0
F1F0
ENDCHAR
STARTCHAR uni01CE
ENCODING 462
SWIDTH 596 0
DWIDTH 10 0
BBX 9 13 1 0
BITMAP
2100
1200
1C00
0800
0000
0F80
3300
6300
6700
C600
CE00
D680
E700
ENDCHAR
STARTCHAR uni01CF
ENCODING 463
SWIDTH 386 0
DWIDTH 6 0
BBX 8 17 1 0
BITMAP
21
12
1C
08
00
3F
0C
0C
1C
1C
18
18
38
38
30
30
FC
ENDCHAR
STARTCHAR uni01D0
ENCODING 464
SWIDTH 339 0
DWIDTH 6 0
BBX 6 13 1 0
BITMAP
84
48
70
20
00
18
70
30
30
30
60
68
70
ENDCHAR
STARTCHAR uni01D1
ENCODING 465
SWIDTH 761 0
DWIDTH 13 0
BBX 11 17 2 0
BITMAP
1080
0900
0E00
0400
0000
0F80
38C0
7060
6060
E060
C060
C060
C0E0
C0C0
C1C0
6380
3E00
ENDCHAR
STARTCHAR uni01D2
ENCODING 466
SWIDTH 562 0
DWIDTH 9 0
BBX 9 13 1 0
BITMAP
2100
1200
1C00
0800
0000
1F00
7180
6180
E180
C380
C300
C700
7C00
ENDCHAR
STARTCHAR uni01D3
ENCODING 467
SWIDTH 776 0
DWIDTH 13 0
BBX 12 17 3 0
BITMAP
1080
0900
0E00
0400
0000
F9F0
70C0
60C0
61C0
61C0
6180
C180
C380
C380
C300
C600
3C00
ENDCHAR
STARTCHAR uni01D4
ENCODING 468
SWIDTH 634 0
DWIDTH 11 0
BBX 9 13 2 0
BITMAP
2100
1200
1C00
0800
0000
3180
F300
6300
6300
6700
CE00
D680
E700
ENDCHAR
STARTCHAR uni01D5
ENCODING 469
SWIDTH 776 0
DWIDTH 13 0
BBX 11 16 3 0
BITMAP
1F00
0000
1980
1980
F9E0
70C0
60C0
6180
6180
6180
E180
C180
C300
C300
E700
3C00
ENDCHAR
STARTCHAR uni01D6
ENCODING 470
SWIDTH 634 0
DWIDTH 11 0
BBX 9 14 2 0
BITMAP
3E00
0000
3300
3300
0000
0000
3180
F300
6300
6300
6700
CE00
D680
E700
ENDCHAR
STARTCHAR uni01D7
ENCODING 471
SWIDTH 776 0
DWIDTH 13 0
BBX 11 19 3 0
BITMAP
0180
0380
0600
0800
0000
1980
1980
F9E0
70C0
60C0
6180
6180
6180
E180
C180
C300
C300
E700
3C00
ENDCHAR
STARTCHAR uni01D8
ENCODING 472
SWIDTH 634 0
DWIDTH 11 0
BBX 9 17 2 0
BITMAP
0300
0700
0C00
1000
0000
3300
3300
0000
0000
3180
F300
6300
6300
6700
CE00
D680
E700
ENDCHAR
STARTCHAR uni01D9
ENCODING 473
SWIDTH 776 0
DWIDTH 13 0
BBX 11 19 3 0
BITMAP
1080
0900
0E00
0400
0000
1980
1980
F9E0
70C0
60C0
6180
6180
6180
E180
C180
C300
C300
E700
3C00
ENDCHAR
STARTCHAR uni01DA
ENCODING 474
SWIDTH 634 0
DWIDTH 11 0
BBX 9 17 2 0
BITMAP
2100
1200
1C00
0800
0000
3300
3300
0000
0000
3180
F300
6300
6300
6700
CE00
D680
E700
ENDCHAR
STARTCHAR uni01DB
ENCODING 475
SWIDTH 776 0
DWIDTH 13 0
BBX 11 19 3 0
BITMAP
3000
3800
0C00
0200
0000
1980
1980
F9E0
70C0
60C0
6180
6180
6180
E180
C180
C300
C300
E700
3C00
ENDCHAR
STARTCHAR uni01DC
ENCODING 476
SWIDTH 634 0
DWIDTH 11 0
BBX 9 17 2 0
BITMAP
3000
3800
0C00
0200
0000
3300
3300
0000
0000
3180
F300
6300
6300
6700
CE00
D680
E700
ENDCHAR
STARTCHAR uni01DD
ENCODING 477
SWIDTH 476 0
DWIDTH 8 0
BBX 8 8 1 0
BITMAP
1E
63
43
1F
63
C6
CC
78
ENDCHAR
STARTCHAR uni01DE
ENCODING 478
SWIDTH 634 0
DWIDTH 11 0
BBX 11 16 0 0
BITMAP
07C0
0000
0660
0620
0080
0180
0380
0580
0580
09C0
19C0
1FC0
30C0
20C0
40C0
F1E0
ENDCHAR
STARTCHAR uni01DF
ENCODING 479
SWIDTH 596 0
DWIDTH 10 0
BBX 9 14 1 0
BITMAP
1F00
0000
1980
1980
0000
0000
0F80
3300
6300
6700
C600
CE00
D680
E700
ENDCHAR
STARTCHAR uni01E0
ENCODING 480
SWIDTH 634 0
DWIDTH 11 0
BBX 12 17 -1 0
BITMAP
07C0
0000
0300
0300
0000
01C0
01C0
03C0
03C0
05C0
04C0
08C0
0FC0
10C0
30E0
20E0
F1F0
ENDCHAR
STARTCHAR uni01E1
ENCODING 481
SWIDTH 596 0
DWIDTH 10 0
BBX 9 13 1 0
BITMAP
3E00
0000
0C00
0C00
0000
0F80
3300
6300
6700
C600
CE00
D680
E700
ENDCHAR
STARTCHAR uni01E2
ENCODING 482
SWIDTH 890 0
DWIDTH 15 0
BBX 18 14 -1 0
BITMAP
00F800
000000
01FFC0
00B080
013080
017000
027200
07FE00
0C6200
08E200
10E000
30C100
60E300
F3FE00
ENDCHAR
STARTCHAR uni01E3
ENCODING 483
SWIDTH 789 0
DWIDTH 13 0
BBX 13 11 1 0
BITMAP
07C0
0000
0000
0F70
3198
6198
6330
C3C0
C710
DB10
E1E0
ENDCHAR
STARTCHAR uni01E4
ENCODING 484
SWIDTH 726 0
DWIDTH 12 0
BBX 13 12 2 0
BITMAP
07C0
1860
3020
7020
E000
E000
E3E0
E1C0
E1C0
67F8
7180
1F00
ENDCHAR
STARTCHAR uni01E5
ENCODING 485
SWIDTH 522 0
DWIDTH 9 0
BBX 11 12 0 -4
BITMAP
0F60
1980
3180
3380
1E00
3000
3E00
3F80
C380
FFE0
E100
3E00
ENDCHAR
STARTCHAR Gcaron
ENCODING 486
SWIDTH 726 0
DWIDTH 12 0
BBX 11 17 2 0
BITMAP
1080
0900
0E00
0400
0000
07C0
1860
3020
7020
E000
E000
E3E0
E1C0
E1C0
61C0
7180
1F00
ENDCHAR
STARTCHAR gcaron
ENCODING 487
SWIDTH 522 0
DWIDTH 9 0
BBX 11 17 0 -4
BITMAP
1080
0900
0E00
0400
0000
0F60
1980
3180
3380
1E00
3000
3E00
3F80
C380
C180
E100
3E00
ENDCHAR
STARTCHAR uni01E8
ENCODING 488
SWIDTH 688 0
DWIDTH 11 0
BBX 13 17 1 0
BITMAP
0840
0480
0700
0200
0000
3E78
1C60
1CC0
1980
1A00
3E00
3F00
3700
3780
7380
61C0
F8E0
ENDCHAR
STARTCHAR uni01E9
ENCODING 489
SWIDTH 570 0
DWIDTH 9 0
BBX 10 17 1 0
BITMAP
4200
2400
3800
1000
0000
1800
7800
3000
3000
31C0
3380
7400
6400
6C00
6C00
E580
C700
ENDCHAR
STARTCHAR uni01EA
ENCODING 490
SWIDTH 761 0
DWIDTH 13 0
BBX 11 16 2 -4
BITMAP
0F80
38C0
7060
6060
E060
C060
C060
C0E0
C0C0
C1C0
6380
3E00
0400
0800
1800
0E00
ENDCHAR
STARTCHAR uni01EB
ENCODING 491
SWIDTH 562 0
DWIDTH 9 0
BBX 9 12 1 -4
BITMAP
1F00
7180
6180
E180
C380
C300
C700
7C00
0800
1000
3000
1C00
ENDCHAR
STARTCHAR uni01EC
ENCODING 492
SWIDTH 761 0
DWIDTH 13 0
BBX 11 18 2 -4
BITMAP
1F00
0000
0F80
38C0
7060
6060
E060
C060
C060
C0E0
C0C0
C1C0
6380
3E00
0400
0800
1800
0E00
ENDCHAR
STARTCHAR uni01ED
ENCODING 493
SWIDTH 562 0
DWIDTH 9 0
BBX 9 14 1 -4
BITMAP
3E00
0000
1F00
7180
6180
E180
C380
C300
C700
7C00
0800
1000
3000
1C00
ENDCHAR
STARTCHAR uni01F0
ENCODING 496
SWIDTH 333 0
DWIDTH 6 0
BBX 8 17 -1 -4
BITMAP
21
12
1C
08
00
06
1C
0C
0C
0C
0C
1C
18
18
18
D0
E0
ENDCHAR
STARTCHAR uni01F4
ENCODING 500
SWIDTH 726 0
DWIDTH 12 0
BBX 11 17 2 0
BITMAP
0180
0380
0600
0800
0000
07C0
1860
3020
7020
E000
E000
E3E0
E1C0
E1C0
61C0
7180
1F00
ENDCHAR
STARTCHAR uni01F5
ENCODING 501
SWIDTH 522 0
DWIDTH 9 0
BBX 11 17 0 -4
BITMAP
0180
0380
0600
0800
0000
0F60
1980
3180
3380
1E00
3000
3E00
3F80
C380
C180
E100
3E00
ENDCHAR
STARTCHAR uni01F8
ENCODING 504
SWIDTH 741 0
DWIDTH 12 0
BBX 14 17 1 0
BITMAP
0C00
0E00
0300
0080
0000
3C3C
0E18
1610
1710
1710
1320
13A0
21A0
21E0
21E0
60C0
F0C0
ENDCHAR
STARTCHAR uni01F9
ENCODING 505
SWIDTH 635 0
DWIDTH 11 0
BBX 10 13 1 0
BITMAP
3000
3800
0C00
0200
0000
1380
7580
3980
3980
7300
7340
6340
E380
ENDCHAR
STARTCHAR Aringacute
ENCODING 506
SWIDTH 634 0
DWIDTH 11 0
BBX 11 20 0 0
BITMAP
00C0
01C0
0300
0400
0000
0180
0240
0240
0380
0380
0380
0580
0D80
09C0
19C0
1FC0
20C0
20C0
40C0
E1E0
ENDCHAR
STARTCHAR aringacute
ENCODING 507
SWIDTH 596 0
DWIDTH 10 0
BBX 9 18 1 0
BITMAP
0180
0380
0600
0800
0000
0600
0900
0900
0600
0000
0D80
3300
6300
6700
C600
CE00
D680
E700
ENDCHAR
STARTCHAR AEacute
ENCODING 508
SWIDTH 890 0
DWIDTH 15 0
BBX 18 17 -1 0
BITMAP
000C00
001C00
003000
004000
000000
01FFC0
00B080
013080
017000
027200
07FE00
0C6200
08E200
10E000
30C100
60E300
F3FE00
ENDCHAR
STARTCHAR aeacute
ENCODING 509
SWIDTH 789 0
DWIDTH 13 0
BBX 13 14 1 0
BITMAP
0060
00E0
0180
0200
0000
0000
0F70
3198
6198
6330
C3C0
C710
DB10
E1E0
ENDCHAR
STARTCHAR Oslashacute
ENCODING 510
SWIDTH 761 0
DWIDTH 13 0
BBX 11 18 2 -1
BITMAP
0180
0380
0600
0800
0000
0FA0
38C0
70C0
6160
E260
E660
CC60
D8E0
D0C0
E1C0
6380
7E00
8000
ENDCHAR
STARTCHAR oslashacute
ENCODING 511
SWIDTH 562 0
DWIDTH 9 0
BBX 9 15 1 -1
BITMAP
0300
0700
0C00
1000
0000
0100
1F00
7300
6780
E980
CB80
D300
6700
7C00
4000
ENDCHAR
STARTCHAR Scommaaccent
ENCODING 536
SWIDTH 551 0
DWIDTH 9 0
BBX 9 19 2 -7
BITMAP
1E00
2380
6100
6100
7000
3C00
1C00
0E00
8600
8600
C400
7800
0000
1800
1800
1800
1000
1000
2000
ENDCHAR
STARTCHAR scommaaccent
ENCODING 537
SWIDTH 417 0
DWIDTH 7 0
BBX 7 15 1 -7
BITMAP
3C
66
60
78
3C
8C
CC
78
00
30
30
30
20
20
40
ENDCHAR
STARTCHAR Tcommaaccent
ENCODING 538
SWIDTH 616 0
DWIDTH 10 0
BBX 11 19 2 -7
BITMAP
7FE0
4E40
8E40
0C00
1C00
1C00
1C00
1800
1800
3800
3800
FC00
0000
1800
1800
1800
1000
1000
2000
ENDCHAR
STARTCHAR tcommaaccent
ENCODING 539
SWIDTH 359 0
DWIDTH 6 0
BBX 6 17 2 -7
BITMAP
30
70
FC
60
60
60
40
D0
D0
E0
00
60
60
60
40
40
80
ENDCHAR
STARTCHAR uni021E
ENCODING 542
SWIDTH 800 0
DWIDTH 13 0
BBX 15 17 0 0
BITMAP
0420
0240
0380
0100
0000
3F7E
0C18
0C38
1C38
1C38
1FF0
1830
3870
3870
3860
3060
FDF0
ENDCHAR
STARTCHAR uni021F
ENCODING 543
SWIDTH 629 0
DWIDTH 10 0
BBX 10 17 1 0
BITMAP
2100
1200
1C00
0800
0000
0C00
3800
1800
3800
3380
3580
3980
3180
7100
6340
6340
E380
ENDCHAR
STARTCHAR uni0226
ENCODING 550
SWIDTH 634 0
DWIDTH 11 0
BBX 12 15 -1 0
BITMAP
0300
0300
0000
01C0
01C0
03C0
03C0
05C0
04C0
08C0
0FC0
10C0
30E0
20E0
F1F0
ENDCHAR
STARTCHAR uni0227
ENCODING 551
SWIDTH 596 0
DWIDTH 10 0
BBX 9 11 1 0
BITMAP
0C00
0C00
0000
0F80
3300
6300
6700
C600
CE00
D680
E700
ENDCHAR
STARTCHAR uni0228
ENCODING 552
SWIDTH 622 0
DWIDTH 10 0
BBX 11 16 1 -4
BITMAP
3FE0
1C60
1C20
1800
1880
3F80
3900
3100
3040
7080
7180
FF80
0800
0E00
0600
1C00
ENDCHAR
STARTCHAR uni0229
ENCODING 553
SWIDTH 476 0
DWIDTH 8 0
BBX 8 12 1 -4
BITMAP
1E
33
63
C6
F8
C2
C6
78
20
38
18
70
ENDCHAR
STARTCHAR uni022A
ENCODING 554
SWIDTH 761 0
DWIDTH 13 0
BBX 11 16 2 0
BITMAP
0F80
0000
0CC0
0C40
0F00
38C0
7060
6060
E060
C060
C060
C0E0
C0C0
C1C0
6380
3E00
ENDCHAR
STARTCHAR uni022B
ENCODING 555
SWIDTH 562 0
DWIDTH 9 0
BBX 9 14 1 0
BITMAP
1F00
0000
1980
1980
0000
0000
1F00
7180
6180
E180
C380
C300
C700
7C00
ENDCHAR
STARTCHAR uni022C
ENCODING 556
SWIDTH 761 0
DWIDTH 13 0
BBX 11 16 2 0
BITMAP
0F80
0000
1E20
01C0
0F80
38C0
7060
6060
E060
C060
C060
C0E0
C0C0
C1C0
6380
3E00
ENDCHAR
STARTCHAR uni022D
ENCODING 557
SWIDTH 562 0
DWIDTH 9 0
BBX 10 14 1 0
BITMAP
0F80
0000
0040
0F80
1000
0000
1F00
7180
6180
E180
C380
C300
C700
7C00
ENDCHAR
STARTCHAR uni022E
ENCODING 558
SWIDTH 761 0
DWIDTH 13 0
BBX 11 15 2 0
BITMAP
0600
0600
0000
0F80
38C0
7060
6060
E060
C060
C060
C0E0
C0C0
C1C0
6380
3E00
ENDCHAR
STARTCHAR uni022F
ENCODING 559
SWIDTH 562 0
DWIDTH 9 0
BBX 9 11 1 0
BITMAP
0C00
0C00
0000
1F00
7180
6180
E180
C380
C300
C700
7C00
ENDCHAR
STARTCHAR uni0230
ENCODING 560
SWIDTH 761 0
DWIDTH 13 0
BBX 11 17 2 0
BITMAP
0F80
0000
0600
0600
0000
0F80
38C0
7060
6060
E060
C060
C060
C0E0
C0C0
C1C0
6380
3E00
ENDCHAR
STARTCHAR uni0231
ENCODING 561
SWIDTH 562 0
DWIDTH 9 0
BBX 9 13 1 0
BITMAP
3E00
0000
0C00
0C00
0000
1F00
7180
6180
E180
C380
C300
C700
7C00
ENDCHAR
STARTCHAR uni0232
ENCODING 562
SWIDTH 622 0
DWIDTH 10 0
BBX 11 14 2 0
BITMAP
1F00
0000
F9E0
3080
3180
3100
3A00
1C00
1C00
1800
1800
1800
3800
7C00
ENDCHAR
STARTCHAR uni0233
ENCODING 563
SWIDTH 489 0
DWIDTH 8 0
BBX 10 14 -1 -4
BITMAP
1F00
0000
3840
18C0
1CC0
0C80
0D80
0D00
0E00
0E00
0C00
0800
4800
F000
ENDCHAR
STARTCHAR uni0250
ENCODING 592
SWIDTH 596 0
DWIDTH 10 0
BBX 9 8 1 0
BITMAP
7380
B580
3980
3180
7300
6300
6600
F800
ENDCHAR
STARTCHAR uni0259
ENCODING 601
SWIDTH 476 0
DWIDTH 8 0
BBX 8 8 1 0
BITMAP
1E
63
43
1F
63
C6
CC
78
ENDCHAR
STARTCHAR uni025F
ENCODING 607
SWIDTH 348 0
DWIDTH 6 0
BBX 11 16 -1 -8
BITMAP
00C0
0160
0300
0300
0300
0600
0600
0600
0600
0E00
0C00
3F00
0C00
1C00
D800
7000
ENDCHAR
STARTCHAR uni0265
ENCODING 613
SWIDTH 629 0
DWIDTH 10 0
BBX 10 12 1 -4
BITMAP
71C0
B180
B180
2380
6300
6700
6B00
7300
0700
0600
0700
0C00
ENDCHAR
STARTCHAR uni0275
ENCODING 629
SWIDTH 562 0
DWIDTH 9 0
BBX 9 8 1 0
BITMAP
1F00
7180
6180
FF80
C380
C300
C700
7C00
ENDCHAR
STARTCHAR uni0279
ENCODING 633
SWIDTH 440 0
DWIDTH 7 0
BBX 8 8 1 0
BITMAP
07
06
0E
0E
0C
0C
FE
CC
ENDCHAR
STARTCHAR uni0287
ENCODING 647
SWIDTH 359 0
DWIDTH 6 0
BBX 6 10 2 0
BITMAP
1C
2C
2C
08
18
18
18
FC
38
30
ENDCHAR
STARTCHAR uni0289
ENCODING 649
SWIDTH 634 0
DWIDTH 11 0
BBX 9 8 2 0
BITMAP
3180
F300
6300
FF80
6700
CE00
D680
E700
ENDCHAR
STARTCHAR uni028C
ENCODING 652
SWIDTH 518 0
DWIDTH 9 0
BBX 8 8 2 0
BITMAP
0F
13
23
43
46
C6
C7
CC
ENDCHAR
STARTCHAR uni028D
ENCODING 653
SWIDTH 795 0
DWIDTH 13 0
BBX 12 8 2 0
BITMAP
0E70
16B0
2730
4630
C660
CC60
CC70
CC40
ENDCHAR
STARTCHAR uni028E
ENCODING 654
SWIDTH 489 0
DWIDTH 8 0
BBX 10 12 -1 0
BITMAP
03C0
0480
0400
0C00
1C00
1C00
2C00
6C00
4C00
CE00
C600
8700
ENDCHAR
STARTCHAR uni029E
ENCODING 670
SWIDTH 570 0
DWIDTH 9 0
BBX 10 12 1 -4
BITMAP
38C0
69C0
0D80
0D80
0980
0B80
7300
E300
0300
0300
0780
0600
ENDCHAR
STARTCHAR uni02BB
ENCODING 699
SWIDTH 246 0
DWIDTH 4 0
BBX 3 5 3 7
BITMAP
20
40
C0
C0
C0
ENDCHAR
STARTCHAR afii57929
ENCODING 700
SWIDTH 246 0
DWIDTH 4 0
BBX 3 5 2 7
BITMAP
60
60
60
40
80
ENDCHAR
STARTCHAR afii64937
ENCODING 701
SWIDTH 246 0
DWIDTH 4 0
BBX 3 5 2 7
BITMAP
C0
C0
C0
40
20
ENDCHAR
STARTCHAR circumflex
ENCODING 710
SWIDTH 400 0
DWIDTH 7 0
BBX 6 4 2 9
BITMAP
10
38
48
84
ENDCHAR
STARTCHAR caron
ENCODING 711
SWIDTH 400 0
DWIDTH 7 0
BBX 6 4 3 9
BITMAP
84
48
70
20
ENDCHAR
STARTCHAR uni02C8
ENCODING 712
SWIDTH 246 0
DWIDTH 4 0
BBX 2 6 3 6
BITMAP
C0
C0
C0
80
80
80
ENDCHAR
STARTCHAR macron
ENCODING 713
SWIDTH 400 0
DWIDTH 7 0
BBX 5 1 3 10
BITMAP
F8
ENDCHAR
STARTCHAR uni02CA
ENCODING 714
SWIDTH 400 0
DWIDTH 7 0
BBX 5 4 3 8
BITMAP
18
38
60
80
ENDCHAR
STARTCHAR uni02CB
ENCODING 715
SWIDTH 400 0
DWIDTH 7 0
BBX 5 4 2 8
BITMAP
C0
E0
30
08
ENDCHAR
STARTCHAR uni02CD
ENCODING 717
SWIDTH 400 0
DWIDTH 7 0
BBX 5 1 3 -2
BITMAP
F8
ENDCHAR
STARTCHAR uni02CE
ENCODING 718
SWIDTH 400 0
DWIDTH 7 0
BBX 5 4 2 -5
BITMAP
C0
E0
30
08
ENDCHAR
STARTCHAR uni02CF
ENCODING 719
SWIDTH 400 0
DWIDTH 7 0
BBX 5 4 3 -5
BITMAP
18
38
60
80
ENDCHAR
STARTCHAR breve
ENCODING 728
SWIDTH 400 0
DWIDTH 7 0
BBX 6 3 3 9
BITMAP
04
88
70
ENDCHAR
STARTCHAR dotaccent
ENCODING 729
SWIDTH 402 0
DWIDTH 7 0
BBX 2 2 5 10
BITMAP
C0
C0
ENDCHAR
STARTCHAR ring
ENCODING 730
SWIDTH 400 0
DWIDTH 7 0
BBX 5 4 3 9
BITMAP
70
88
88
70
ENDCHAR
STARTCHAR ogonek
ENCODING 731
SWIDTH 350 0
DWIDTH 6 0
BBX 4 4 1 -4
BITMAP
20
40
C0
70
ENDCHAR
STARTCHAR tilde
ENCODING 732
SWIDTH 400 0
DWIDTH 7 0
BBX 7 2 2 10
BITMAP
72
9C
ENDCHAR
STARTCHAR hungarumlaut
ENCODING 733
SWIDTH 400 0
DWIDTH 7 0
BBX 5 3 3 9
BITMAP
48
50
90
ENDCHAR
STARTCHAR uni02EE
ENCODING 750
SWIDTH 455 0
DWIDTH 8 0
BBX 7 5 2 7
BITMAP
66
6E
66
4C
88
ENDCHAR
STARTCHAR uni037E
ENCODING 894
SWIDTH 280 0
DWIDTH 5 0
BBX 4 11 1 -3
BITMAP
70
70
60
00
00
60
60
60
40
40
80
ENDCHAR
STARTCHAR tonos
ENCODING 900
SWIDTH 400 0
DWIDTH 7 0
BBX 5 4 3 8
BITMAP
18
38
60
80
ENDCHAR
STARTCHAR dieresistonos
ENCODING 901
SWIDTH 400 0
DWIDTH 7 0
BBX 7 7 2 10
BITMAP
06
0E
18
20
00
EE
EE
ENDCHAR
STARTCHAR anoteleia
ENCODING 903
SWIDTH 280 0
DWIDTH 5 0
BBX 3 3 2 3
BITMAP
60
E0
C0
ENDCHAR
STARTCHAR mu
ENCODING 956
SWIDTH 634 0
DWIDTH 11 0
BBX 10 12 1 -4
BITMAP
18C0
7980
3980
3180
3380
3700
7740
7B80
4000
C000
C000
8000
ENDCHAR
STARTCHAR uni1E00
ENCODING 7680
SWIDTH 634 0
DWIDTH 11 0
BBX 12 17 -1 -5
BITMAP
01C0
01C0
03C0
03C0
05C0
04C0
08C0
0FC0
10C0
30E0
20E0
F1F0
0000
0700
0880
0880
0700
ENDCHAR
STARTCHAR uni1E01
ENCODING 7681
SWIDTH 596 0
DWIDTH 10 0
BBX 9 13 1 -5
BITMAP
0F80
3300
6300
6700
C600
CE00
D680
E700
0000
1C00
2200
2200
1C00
ENDCHAR
STARTCHAR uni1E02
ENCODING 7682
SWIDTH 680 0
DWIDTH 11 0
BBX 11 15 1 0
BITMAP
0600
0600
0000
3FC0
0C60
1C60
1C60
18C0
1F80
1980
38C0
38C0
30C0
3180
FF00
ENDCHAR
STARTCHAR uni1E03
ENCODING 7683
SWIDTH 586 0
DWIDTH 10 0
BBX 9 15 1 0
BITMAP
1800
1800
0000
0800
3800
1800
3800
3380
3580
3980
7180
7300
6300
6600
9C00
ENDCHAR
STARTCHAR uni1E04
ENCODING 7684
SWIDTH 680 0
DWIDTH 11 0
BBX 11 15 1 -3
BITMAP
3FC0
0C60
1C60
1C60
18C0
1F80
1980
38C0
38C0
30C0
3180
FF00
0000
0C00
0C00
ENDCHAR
STARTCHAR uni1E05
ENCODING 7685
SWIDTH 586 0
DWIDTH 10 0
BBX 9 15 1 -3
BITMAP
0800
3800
1800
3800
3380
3580
3980
7180
7300
6300
6600
9C00
0000
1800
1800
ENDCHAR
STARTCHAR uni1E06
ENCODING 7686
SWIDTH 680 0
DWIDTH 11 0
BBX 11 14 1 -2
BITMAP
3FC0
0C60
1C60
1C60
18C0
1F80
1980
38C0
38C0
30C0
3180
FF00
0000
1F00
ENDCHAR
STARTCHAR uni1E07
ENCODING 7687
SWIDTH 586 0
DWIDTH 10 0
BBX 9 14 1 -2
BITMAP
0800
3800
1800
3800
3380
3580
3980
7180
7300
6300
6600
9C00
0000
3E00
ENDCHAR
STARTCHAR uni1E08
ENCODING 7688
SWIDTH 672 0
DWIDTH 11 0
BBX 11 21 2 -4
BITMAP
0180
0380
0600
0800
0000
0F80
18E0
3040
7040
6000
E000
E000
E000
E080
6180
7300
1E00
0800
1C00
0C00
1800
ENDCHAR
STARTCHAR uni1E09
ENCODING 7689
SWIDTH 456 0
DWIDTH 8 0
BBX 8 17 1 -4
BITMAP
06
0E
18
20
00
1E
33
62
C0
C0
C2
C4
78
20
38
18
70
ENDCHAR
STARTCHAR uni1E0A
ENCODING 7690
SWIDTH 774 0
DWIDTH 13 0
BBX 13 15 0 0
BITMAP
0300
0300
0000
1FC0
0C30
0C18
0C18
1818
1818
1818
1838
3830
3870
38E0
FF80
ENDCHAR
STARTCHAR uni1E0B
ENCODING 7691
SWIDTH 609 0
DWIDTH 10 0
BBX 10 15 1 0
BITMAP
0300
0300
0000
0040
01C0
00C0
01C0
0F80
3980
7180
6380
C300
C700
CB40
F380
ENDCHAR
STARTCHAR uni1E0C
ENCODING 7692
SWIDTH 774 0
DWIDTH 13 0
BBX 13 15 0 -3
BITMAP
1FC0
0C30
0C18
0C18
1818
1818
1818
1838
3830
3870
38E0
FF80
0000
0600
0600
ENDCHAR
STARTCHAR uni1E0D
ENCODING 7693
SWIDTH 609 0
DWIDTH 10 0
BBX 10 15 1 -3
BITMAP
0040
01C0
00C0
01C0
0F80
3980
7180
6380
C300
C700
CB40
F380
0000
0C00
0C00
ENDCHAR
STARTCHAR uni1E0E
ENCODING 7694
SWIDTH 774 0
DWIDTH 13 0
BBX 13 14 0 -2
BITMAP
1FC0
0C30
0C18
0C18
1818
1818
1818
1838
3830
3870
38E0
FF80
0000
0F80
ENDCHAR
STARTCHAR uni1E0F
ENCODING 7695
SWIDTH 609 0
DWIDTH 10 0
BBX 10 14 1 -2
BITMAP
0040
01C0
00C0
01C0
0F80
3980
7180
6380
C300
C700
CB40
F380
0000
3E00
ENDCHAR
STARTCHAR uni1E10
ENCODING 7696
SWIDTH 774 0
DWIDTH 13 0
BBX 13 16 0 -4
BITMAP
1FC0
0C30
0C18
0C18
1818
1818
1818
1838
3830
3870
38E0
FF80
0400
0700
0300
0E00
ENDCHAR
STARTCHAR uni1E11
ENCODING 7697
SWIDTH 609 0
DWIDTH 10 0
BBX 10 16 1 -4
BITMAP
0040
01C0
00C0
01C0
0F80
3980
7180
6380
C300
C700
CB40
F780
0800
0E00
0600
1C00
ENDCHAR
STARTCHAR uni1E12
ENCODING 7698
SWIDTH 774 0
DWIDTH 13 0
BBX 13 17 0 -5
BITMAP
1FC0
0C30
0C18
0C18
1818
1818
1818
1838
3830
3870
38E0
FF80
0000
0200
0700
0900
1080
ENDCHAR
STARTCHAR uni1E13
ENCODING 7699
SWIDTH 609 0
DWIDTH 10 0
BBX 10 17 1 -5
BITMAP
0040
01C0
00C0
01C0
0F80
3980
7180
6380
C300
C700
CB40
F380
0000
0800
1C00
2400
4200
ENDCHAR
STARTCHAR uni1E14
ENCODING 7700
SWIDTH 622 0
DWIDTH 10 0
BBX 11 19 1 0
BITMAP
1800
1C00
0600
0100
0000
1F00
0000
3FE0
1C60
1C20
1800
1880
3F80
3900
3100
3040
7080
7180
FF80
ENDCHAR
STARTCHAR uni1E15
ENCODING 7701
SWIDTH 476 0
DWIDTH 8 0
BBX 8 15 1 0
BITMAP
60
70
18
04
00
3E
00
1E
33
63
C6
F8
C2
C6
78
ENDCHAR
STARTCHAR uni1E16
ENCODING 7702
SWIDTH 622 0
DWIDTH 10 0
BBX 11 19 1 0
BITMAP
0180
0380
0600
0800
0000
1F00
0000
3FE0
1C60
1C20
1800
1880
3F80
3900
3100
3040
7080
7180
FF80
ENDCHAR
STARTCHAR uni1E17
ENCODING 7703
SWIDTH 476 0
DWIDTH 8 0
BBX 8 15 1 0
BITMAP
03
07
0C
10
00
3E
00
1E
33
63
C6
F8
C2
C6
78
ENDCHAR
STARTCHAR uni1E18
ENCODING 7704
SWIDTH 622 0
DWIDTH 10 0
BBX 11 17 1 -5
BITMAP
3FE0
1C60
1C20
1800
1880
3F80
3900
3100
3040
7080
7180
FF80
0000
0400
0E00
1200
2100
ENDCHAR
STARTCHAR uni1E19
ENCODING 7705
SWIDTH 476 0
DWIDTH 8 0
BBX 8 13 1 -5
BITMAP
1E
33
63
C6
F8
C2
C6
78
00
10
38
48
84
ENDCHAR
STARTCHAR uni1E1A
ENCODING 7706
SWIDTH 622 0
DWIDTH 10 0
BBX 11 15 1 -3
BITMAP
3FE0
1C60
1C20
1800
1880
3F80
3900
3100
3040
7080
7180
FF80
0000
3900
4E00
ENDCHAR
STARTCHAR uni1E1B
ENCODING 7707
SWIDTH 476 0
DWIDTH 8 0
BBX 8 11 1 -3
BITMAP
1E
33
63
C6
F8
C2
C6
78
00
72
9C
ENDCHAR
STARTCHAR uni1E1C
ENCODING 7708
SWIDTH 622 0
DWIDTH 10 0
BBX 11 20 1 -4
BITMAP
0080
1100
0E00
0000
3FE0
1C60
1C20
1800
1880
3F80
3900
3100
3040
7080
7180
FF80
0800
0E00
0600
1C00
ENDCHAR
STARTCHAR uni1E1D
ENCODING 7709
SWIDTH 476 0
DWIDTH 8 0
BBX 8 16 1 -4
BITMAP
01
22
1C
00
1E
33
63
C6
F8
C2
C6
78
20
38
18
70
ENDCHAR
STARTCHAR uni1E1E
ENCODING 7710
SWIDTH 585 0
DWIDTH 10 0
BBX 11 15 1 0
BITMAP
0600
0600
0000
3FE0
0C60
0C20
0C00
1840
1880
1F80
1880
1800
3800
3000
FC00
ENDCHAR
STARTCHAR uni1E1F
ENCODING 7711
SWIDTH 348 0
DWIDTH 6 0
BBX 11 19 -1 -4
BITMAP
0300
0300
0000
01C0
0360
0700
0600
1F80
0600
0E00
0C00
0C00
0C00
0C00
1800
1800
1800
D000
6000
ENDCHAR
STARTCHAR uni1E20
ENCODING 7712
SWIDTH 726 0
DWIDTH 12 0
BBX 11 14 2 0
BITMAP
0F80
0000
07C0
1860
3020
7020
E000
E000
E3E0
E1C0
E1C0
61C0
7180
1F00
ENDCHAR
STARTCHAR uni1E21
ENCODING 7713
SWIDTH 522 0
DWIDTH 9 0
BBX 11 14 0 -4
BITMAP
1F00
0000
0F60
1980
3180
3380
1E00
3000
3E00
3F80
C380
C180
E100
3E00
ENDCHAR
STARTCHAR uni1E22
ENCODING 7714
SWIDTH 800 0
DWIDTH 13 0
BBX 15 15 0 0
BITMAP
0180
0180
0000
3F7E
0C18
0C38
1C38
1C38
1FF0
1830
3870
3870
3860
3060
FDF0
ENDCHAR
STARTCHAR uni1E23
ENCODING 7715
SWIDTH 629 0
DWIDTH 10 0
BBX 10 15 1 0
BITMAP
1800
1800
0000
0C00
3800
1800
3800
3380
3580
3980
3180
7100
6340
6340
E380
ENDCHAR
STARTCHAR uni1E24
ENCODING 7716
SWIDTH 800 0
DWIDTH 13 0
BBX 15 15 0 -3
BITMAP
3F7E
0C18
0C38
1C38
1C38
1FF0
1830
3870
3870
3860
3060
FDF0
0000
0300
0300
ENDCHAR
STARTCHAR uni1E25
ENCODING 7717
SWIDTH 629 0
DWIDTH 10 0
BBX 10 15 1 -3
BITMAP
0C00
3800
1800
3800
3380
3580
3980
3180
7100
6340
6340
E380
0000
0C00
0C00
ENDCHAR
STARTCHAR uni1E26
ENCODING 7718
SWIDTH 800 0
DWIDTH 13 0
BBX 15 15 0 0
BITMAP
0770
0770
0000
3F7E
0C18
0C38
1C38
1C38
1FF0
1830
3870
3870
3860
3060
FDF0
ENDCHAR
STARTCHAR uni1E27
ENCODING 7719
SWIDTH 629 0
DWIDTH 10 0
BBX 10 15 1 0
BITMAP
7700
7700
0000
0C00
3800
1800
3800
3380
3580
3980
3180
7100
6340
6340
E380
ENDCHAR
STARTCHAR uni1E28
ENCODING 7720
SWIDTH 800 0
DWIDTH 13 0
BBX 15 16 0 -4
BITMAP
3F7E
0C18
0C38
1C38
1C38
1FF0
1830
3870
3870
3860
3060
FDF0
0200
0380
0180
0700
ENDCHAR
STARTCHAR uni1E29
ENCODING 7721
SWIDTH 629 0
DWIDTH 10 0
BBX 10 16 1 -4
BITMAP
0C00
3800
1800
3800
3380
3580
3980
3180
7100
6340
6340
E780
0800
0E00
0600
1C00
ENDCHAR
STARTCHAR uni1E2A
ENCODING 7722
SWIDTH 800 0
DWIDTH 13 0
BBX 15 16 0 -4
BITMAP
3F7E
0C18
0C38
1C38
1C38
1FF0
1830
3870
3870
3860
3060
FDF0
0000
0100
2200
1C00
ENDCHAR
STARTCHAR uni1E2B
ENCODING 7723
SWIDTH 629 0
DWIDTH 10 0
BBX 10 16 1 -4
BITMAP
0C00
3800
1800
3800
3380
3580
3980
3180
7100
6340
6340
E380
0000
0400
8800
7000
ENDCHAR
STARTCHAR uni1E2C
ENCODING 7724
SWIDTH 386 0
DWIDTH 6 0
BBX 8 15 1 -3
BITMAP
3F
0C
0C
1C
1C
18
18
38
38
30
30
FC
00
72
9C
ENDCHAR
STARTCHAR uni1E2D
ENCODING 7725
SWIDTH 339 0
DWIDTH 6 0
BBX 7 15 0 -3
BITMAP
06
0E
04
00
0C
38
18
18
18
30
34
38
00
72
9C
ENDCHAR
STARTCHAR uni1E2E
ENCODING 7726
SWIDTH 386 0
DWIDTH 6 0
BBX 8 19 1 0
BITMAP
03
07
0C
10
00
33
31
3C
1C
1C
18
18
18
38
30
30
30
30
F8
ENDCHAR
STARTCHAR uni1E2F
ENCODING 7727
SWIDTH 339 0
DWIDTH 6 0
BBX 6 17 2 0
BITMAP
0C
1C
30
40
00
CC
CC
00
00
10
F0
70
60
60
C8
D0
E0
ENDCHAR
STARTCHAR uni1E30
ENCODING 7728
SWIDTH 688 0
DWIDTH 11 0
BBX 13 17 1 0
BITMAP
00C0
01C0
0300
0400
0000
3E78
1C60
1CC0
1980
1A00
3E00
3F00
3700
3780
7380
61C0
F8E0
ENDCHAR
STARTCHAR uni1E31
ENCODING 7729
SWIDTH 570 0
DWIDTH 9 0
BBX 10 17 1 0
BITMAP
0600
0E00
1800
2000
0000
1800
7800
3000
3000
31C0
3380
7400
6400
6C00
6C00
E580
C700
ENDCHAR
STARTCHAR uni1E32
ENCODING 7730
SWIDTH 688 0
DWIDTH 11 0
BBX 13 15 1 -3
BITMAP
3E78
1C60
1CC0
1980
1A00
3E00
3F00
3700
3780
7380
61C0
F8E0
0000
0600
0600
ENDCHAR
STARTCHAR uni1E33
ENCODING 7731
SWIDTH 570 0
DWIDTH 9 0
BBX 10 15 1 -3
BITMAP
1800
7800
3000
3000
31C0
3380
7400
6400
6C00
6C00
E580
C700
0000
1800
1800
ENDCHAR
STARTCHAR uni1E34
ENCODING 7732
SWIDTH 688 0
DWIDTH 11 0
BBX 13 14 1 -2
BITMAP
3E78
1C60
1CC0
1980
1A00
3E00
3F00
3700
3780
7380
61C0
F8E0
0000
1F00
ENDCHAR
STARTCHAR uni1E35
ENCODING 7733
SWIDTH 570 0
DWIDTH 9 0
BBX 10 14 1 -2
BITMAP
1800
7800
3000
3000
31C0
3380
7400
6400
6C00
6C00
E580
C700
0000
3E00
ENDCHAR
STARTCHAR uni1E36
ENCODING 7734
SWIDTH 586 0
DWIDTH 10 0
BBX 10 15 1 -3
BITMAP
3F00
0C00
1C00
1C00
1C00
1800
3800
3800
3840
7040
7080
FF80
0000
0C00
0C00
ENDCHAR
STARTCHAR uni1E37
ENCODING 7735
SWIDTH 327 0
DWIDTH 5 0
BBX 5 15 2 -3
BITMAP
18
70
30
30
60
60
60
60
40
C0
D0
E0
00
60
60
ENDCHAR
STARTCHAR uni1E38
ENCODING 7736
SWIDTH 586 0
DWIDTH 10 0
BBX 10 17 1 -3
BITMAP
3E00
0000
3F00
0C00
1C00
1C00
1C00
1800
3800
3800
3840
7040
7080
FF80
0000
0C00
0C00
ENDCHAR
STARTCHAR uni1E39
ENCODING 7737
SWIDTH 327 0
DWIDTH 5 0
BBX 5 17 2 -3
BITMAP
F8
00
18
70
30
30
60
60
60
60
40
C0
D0
E0
00
60
60
ENDCHAR
STARTCHAR uni1E3A
ENCODING 7738
SWIDTH 586 0
DWIDTH 10 0
BBX 10 14 1 -2
BITMAP
3F00
0C00
1C00
1C00
1C00
1800
3800
3800
3840
7040
7080
FF80
0000
3E00
ENDCHAR
STARTCHAR uni1E3B
ENCODING 7739
SWIDTH 327 0
DWIDTH 5 0
BBX 6 14 1 -2
BITMAP
0C
38
18
18
30
30
30
30
20
60
68
70
00
F8
ENDCHAR
STARTCHAR uni1E3C
ENCODING 7740
SWIDTH 586 0
DWIDTH 10 0
BBX 10 17 1 -5
BITMAP
3F00
0C00
1C00
1C00
1C00
1800
3800
3800
3840
7040
7080
FF80
0000
0800
1C00
2400
4200
ENDCHAR
STARTCHAR uni1E3D
ENCODING 7741
SWIDTH 327 0
DWIDTH 5 0
BBX 6 17 1 -5
BITMAP
0C
38
18
18
30
30
30
30
20
60
68
70
00
10
38
48
84
ENDCHAR
STARTCHAR uni1E3E
ENCODING 7742
SWIDTH 921 0
DWIDTH 15 0
BBX 16 17 1 0
BITMAP
0030
0070
00C0
0100
0000
3C0F
1C1E
1C1C
2E2C
2E4C
265C
265C
2698
2718
4738
4638
F27C
ENDCHAR
STARTCHAR uni1E3F
ENCODING 7743
SWIDTH 914 0
DWIDTH 15 0
BBX 15 13 1 0
BITMAP
0060
00E0
0180
0200
0000
139C
75AC
39CC
318C
7398
731A
631A
E71C
ENDCHAR
STARTCHAR uni1E40
ENCODING 7744
SWIDTH 921 0
DWIDTH 15 0
BBX 16 15 1 0
BITMAP
0180
0180
0000
3C0F
1C1E
1C1C
2E2C
2E4C
265C
265C
2698
2718
4738
4638
F27C
ENDCHAR
STARTCHAR uni1E41
ENCODING 7745
SWIDTH 914 0
DWIDTH 15 0
BBX 15 11 1 0
BITMAP
0180
0180
0000
139C
75AC
39CC
318C
7398
731A
631A
E71C
ENDCHAR
STARTCHAR uni1E42
ENCODING 7746
SWIDTH 921 0
DWIDTH 15 0
BBX 16 15 1 -3
BITMAP
3C0F
1C1E
1C1C
2E2C
2E4C
265C
265C
2698
2718
4738
4638
F27C
0000
0180
0180
ENDCHAR
STARTCHAR uni1E43
ENCODING 7747
SWIDTH 914 0
DWIDTH 15 0
BBX 15 11 1 -3
BITMAP
139C
75AC
39CC
318C
7398
731A
631A
E71C
0000
0300
0300
ENDCHAR
STARTCHAR uni1E44
ENCODING 7748
SWIDTH 741 0
DWIDTH 12 0
BBX 14 15 1 0
BITMAP
0300
0300
0000
3C3C
0E18
1610
1710
1710
1320
13A0
21A0
21E0
21E0
60C0
F0C0
ENDCHAR
STARTCHAR uni1E45
ENCODING 7749
SWIDTH 635 0
DWIDTH 11 0
BBX 10 11 1 0
BITMAP
0C00
0C00
0000
1380
7580
3980
3980
7300
7340
6340
E380
ENDCHAR
STARTCHAR uni1E46
ENCODING 7750
SWIDTH 741 0
DWIDTH 12 0
BBX 14 15 1 -3
BITMAP
3C3C
0E18
1610
1710
1710
1320
13A0
21A0
21E0
21E0
60C0
F0C0
0000
0300
0300
ENDCHAR
STARTCHAR uni1E47
ENCODING 7751
SWIDTH 635 0
DWIDTH 11 0
BBX 10 11 1 -3
BITMAP
1380
7580
3980
3980
7300
7340
6340
E380
0000
0C00
0C00
ENDCHAR
STARTCHAR uni1E48
ENCODING 7752
SWIDTH 741 0
DWIDTH 12 0
BBX 14 14 1 -2
BITMAP
3C3C
0E18
1610
1710
1710
1320
13A0
21A0
21E0
21E0
60C0
F0C0
0000
0F80
ENDCHAR
STARTCHAR uni1E49
ENCODING 7753
SWIDTH 635 0
DWIDTH 11 0
BBX 10 10 1 -2
BITMAP
1380
7580
3980
3980
7300
7340
6340
E380
0000
1F00
ENDCHAR
STARTCHAR uni1E4A
ENCODING 7754
SWIDTH 741 0
DWIDTH 12 0
BBX 14 17 1 -5
BITMAP
3C3C
0E18
1610
1710
1710
1320
13A0
21A0
21E0
21E0
60C0
F0C0
0000
0200
0700
0900
1080
ENDCHAR
STARTCHAR uni1E4B
ENCODING 7755
SWIDTH 635 0
DWIDTH 11 0
BBX 10 13 1 -5
BITMAP
1380
7580
3980
3980
7300
7340
6340
E380
0000
0400
0E00
1200
2100
ENDCHAR
STARTCHAR uni1E4C
ENCODING 7756
SWIDTH 761 0
DWIDTH 13 0
BBX 11 19 2 0
BITMAP
0180
0380
0600
0800
0000
1E20
01C0
0F80
38C0
7060
6060
E060
C060
C060
C0E0
C0C0
C1C0
6380
3E00
ENDCHAR
STARTCHAR uni1E4D
ENCODING 7757
SWIDTH 562 0
DWIDTH 9 0
BBX 10 17 1 0
BITMAP
0180
0380
0600
0800
0000
0040
0F80
1000
0000
1F00
7180
6180
E180
C380
C300
C700
7C00
ENDCHAR
STARTCHAR uni1E4E
ENCODING 7758
SWIDTH 761 0
DWIDTH 13 0
BBX 11 17 2 0
BITMAP
1DC0
1DC0
0000
1E20
01C0
0F80
38C0
7060
6060
E060
C060
C060
C0E0
C0C0
C1C0
6380
3E00
ENDCHAR
STARTCHAR uni1E4F
ENCODING 7759
SWIDTH 562 0
DWIDTH 9 0
BBX 10 15 1 0
BITMAP
1DC0
1DC0
0000
0040
0F80
1000
0000
1F00
7180
6180
E180
C380
C300
C700
7C00
ENDCHAR
STARTCHAR uni1E50
ENCODING 7760
SWIDTH 761 0
DWIDTH 13 0
BBX 11 19 2 0
BITMAP
1800
1C00
0600
0100
0000
1F00
0000
0F80
38C0
7060
6060
E060
C060
C060
C0E0
C0C0
C1C0
6380
3E00
ENDCHAR
STARTCHAR uni1E51
ENCODING 7761
SWIDTH 562 0
DWIDTH 9 0
BBX 9 15 1 0
BITMAP
3000
3800
0C00
0200
0000
3E00
0000
1F00
7180
6180
E180
C380
C300
C700
7C00
ENDCHAR
STARTCHAR uni1E52
ENCODING 7762
SWIDTH 761 0
DWIDTH 13 0
BBX 11 19 2 0
BITMAP
0180
0380
0600
0800
0000
1F00
0000
0F80
38C0
7060
6060
E060
C060
C060
C0E0
C0C0
C1C0
6380
3E00
ENDCHAR
STARTCHAR uni1E53
ENCODING 7763
SWIDTH 562 0
DWIDTH 9 0
BBX 9 15 1 0
BITMAP
0300
0700
0C00
1000
0000
3E00
0000
1F00
7180
6180
E180
C380
C300
C700
7C00
ENDCHAR
STARTCHAR uni1E54
ENCODING 7764
SWIDTH 660 0
DWIDTH 11 0
BBX 11 17 1 0
BITMAP
00C0
01C0
0300
0400
0000
1F80
0C60
0C60
1C60
1C60
18C0
1F80
3800
3800
3800
3000
FC00
ENDCHAR
STARTCHAR uni1E55
ENCODING 7765
SWIDTH 606 0
DWIDTH 10 0
BBX 10 17 1 -4
BITMAP
0180
0380
0600
0800
0000
19C0
7AC0
1CC0
38C0
3980
3180
3300
7E00
6000
6000
6000
C000
ENDCHAR
STARTCHAR uni1E56
ENCODING 7766
SWIDTH 660 0
DWIDTH 11 0
BBX 11 15 1 0
BITMAP
0600
0600
0000
1F80
0C60
0C60
1C60
1C60
18C0
1F80
3800
3800
3800
3000
FC00
ENDCHAR
STARTCHAR uni1E57
ENCODING 7767
SWIDTH 606 0
DWIDTH 10 0
BBX 10 15 1 -4
BITMAP
0600
0600
0000
19C0
7AC0
1CC0
38C0
3980
3180
3300
7E00
6000
6000
6000
C000
ENDCHAR
STARTCHAR uni1E58
ENCODING 7768
SWIDTH 681 0
DWIDTH 11 0
BBX 11 15 1 0
BITMAP
0300
0300
0000
1FC0
0C60
0C60
0C60
1860
18C0
1F00
1980
1980
3980
3980
F8C0
ENDCHAR
STARTCHAR uni1E59
ENCODING 7769
SWIDTH 440 0
DWIDTH 7 0
BBX 8 11 1 0
BITMAP
18
18
00
33
7F
30
30
70
70
60
E0
ENDCHAR
STARTCHAR uni1E5A
ENCODING 7770
SWIDTH 681 0
DWIDTH 11 0
BBX 11 15 1 -3
BITMAP
1FC0
0C60
0C60
0C60
1860
18C0
1F00
1980
1980
3980
3980
F8C0
0000
0C00
0C00
ENDCHAR
STARTCHAR uni1E5B
ENCODING 7771
SWIDTH 440 0
DWIDTH 7 0
BBX 8 11 1 -3
BITMAP
33
7F
30
30
70
70
60
E0
00
30
30
ENDCHAR
STARTCHAR uni1E5C
ENCODING 7772
SWIDTH 681 0
DWIDTH 11 0
BBX 11 17 1 -3
BITMAP
0F80
0000
1FC0
0C60
0C60
0C60
1860
18C0
1F00
1980
1980
3980
3980
F8C0
0000
0C00
0C00
ENDCHAR
STARTCHAR uni1E5D
ENCODING 7773
SWIDTH 440 0
DWIDTH 7 0
BBX 8 13 1 -3
BITMAP
3E
00
33
7F
30
30
70
70
60
E0
00
30
30
ENDCHAR
STARTCHAR uni1E5E
ENCODING 7774
SWIDTH 681 0
DWIDTH 11 0
BBX 11 14 1 -2
BITMAP
1FC0
0C60
0C60
0C60
1860
18C0
1F00
1980
1980
3980
3980
F8C0
0000
1F00
ENDCHAR
STARTCHAR uni1E5F
ENCODING 7775
SWIDTH 440 0
DWIDTH 7 0
BBX 8 10 1 -2
BITMAP
33
7F
30
30
70
70
60
E0
00
F8
ENDCHAR
STARTCHAR uni1E60
ENCODING 7776
SWIDTH 551 0
DWIDTH 9 0
BBX 9 15 2 0
BITMAP
0C00
0C00
0000
1E00
2380
6100
6100
7000
3C00
1C00
0E00
8600
8600
C400
7800
ENDCHAR
STARTCHAR uni1E61
ENCODING 7777
SWIDTH 417 0
DWIDTH 7 0
BBX 7 11 1 0
BITMAP
18
18
00
3C
66
60
78
3C
8C
CC
78
ENDCHAR
STARTCHAR uni1E62
ENCODING 7778
SWIDTH 551 0
DWIDTH 9 0
BBX 9 15 2 -3
BITMAP
1E00
2380
6100
6100
7000
3C00
1C00
0E00
8600
8600
C400
7800
0000
1800
1800
ENDCHAR
STARTCHAR uni1E63
ENCODING 7779
SWIDTH 417 0
DWIDTH 7 0
BBX 7 11 1 -3
BITMAP
3C
66
60
78
3C
8C
CC
78
00
30
30
ENDCHAR
STARTCHAR uni1E64
ENCODING 7780
SWIDTH 551 0
DWIDTH 9 0
BBX 9 20 2 0
BITMAP
0C00
0C00
0000
0300
0700
0C00
1000
0000
1E00
2380
6100
6100
7000
3C00
1C00
0E00
8600
8600
C400
7800
ENDCHAR
STARTCHAR uni1E65
ENCODING 7781
SWIDTH 417 0
DWIDTH 7 0
BBX 7 16 1 0
BITMAP
18
18
00
06
0E
18
20
00
3C
66
60
78
3C
8C
CC
78
ENDCHAR
STARTCHAR uni1E66
ENCODING 7782
SWIDTH 551 0
DWIDTH 9 0
BBX 9 18 2 0
BITMAP
0C00
0C00
0000
1180
0E00
0C00
1E00
2380
6100
6100
7000
3C00
1C00
0E00
8600
8600
C400
7800
ENDCHAR
STARTCHAR uni1E67
ENCODING 7783
SWIDTH 417 0
DWIDTH 7 0
BBX 8 16 1 0
BITMAP
18
18
00
21
32
1C
08
00
3C
66
60
78
3C
8C
CC
78
ENDCHAR
STARTCHAR uni1E68
ENCODING 7784
SWIDTH 551 0
DWIDTH 9 0
BBX 9 18 2 -3
BITMAP
0C00
0C00
0000
1E00
2380
6100
6100
7000
3C00
1C00
0E00
8600
8600
C400
7800
0000
1800
1800
ENDCHAR
STARTCHAR uni1E69
ENCODING 7785
SWIDTH 417 0
DWIDTH 7 0
BBX 7 14 1 -3
BITMAP
18
18
00
3C
66
60
78
3C
8C
CC
78
00
30
30
ENDCHAR
STARTCHAR uni1E6A
ENCODING 7786
SWIDTH 616 0
DWIDTH 10 0
BBX 11 15 2 0
BITMAP
0600
0600
0000
7FE0
4E40
8E40
0C00
1C00
1C00
1C00
1800
1800
3800
3800
FC00
ENDCHAR
STARTCHAR uni1E6B
ENCODING 7787
SWIDTH 359 0
DWIDTH 6 0
BBX 6 13 2 0
BITMAP
30
30
00
30
70
FC
60
60
60
40
D0
D0
E0
ENDCHAR
STARTCHAR uni1E6C
ENCODING 7788
SWIDTH 616 0
DWIDTH 10 0
BBX 11 15 2 -3
BITMAP
7FE0
4E40
8E40
0C00
1C00
1C00
1C00
1800
1800
3800
3800
FC00
0000
1800
1800
ENDCHAR
STARTCHAR uni1E6D
ENCODING 7789
SWIDTH 359 0
DWIDTH 6 0
BBX 6 13 2 -3
BITMAP
30
70
FC
60
60
60
40
D0
D0
E0
00
60
60
ENDCHAR
STARTCHAR uni1E6E
ENCODING 7790
SWIDTH 616 0
DWIDTH 10 0
BBX 11 14 2 -2
BITMAP
7FE0
4E40
8E40
0C00
1C00
1C00
1C00
1800
1800
3800
3800
FC00
0000
3E00
ENDCHAR
STARTCHAR uni1E6F
ENCODING 7791
SWIDTH 359 0
DWIDTH 6 0
BBX 6 12 2 -2
BITMAP
30
70
FC
60
60
60
40
D0
D0
E0
00
F8
ENDCHAR
STARTCHAR uni1E70
ENCODING 7792
SWIDTH 616 0
DWIDTH 10 0
BBX 11 17 2 -5
BITMAP
7FE0
4E40
8E40
0C00
1C00
1C00
1C00
1800
1800
3800
3800
FC00
0000
0800
1C00
2400
4200
ENDCHAR
STARTCHAR uni1E71
ENCODING 7793
SWIDTH 359 0
DWIDTH 6 0
BBX 7 15 1 -5
BITMAP
18
38
7E
30
30
30
20
68
68
70
00
10
38
48
84
ENDCHAR
STARTCHAR uni1E72
ENCODING 7794
SWIDTH 776 0
DWIDTH 13 0
BBX 12 15 3 -3
BITMAP
F9F0
70C0
60C0
61C0
61C0
6180
C180
C380
C380
C300
C600
3C00
0000
7700
7700
ENDCHAR
STARTCHAR uni1E73
ENCODING 7795
SWIDTH 634 0
DWIDTH 11 0
BBX 9 11 2 -3
BITMAP
3180
F300
6300
6300
6700
CE00
D680
E700
0000
7700
7700
ENDCHAR
STARTCHAR uni1E74
ENCODING 7796
SWIDTH 776 0
DWIDTH 13 0
BBX 12 15 3 -3
BITMAP
F9F0
70C0
60C0
61C0
61C0
6180
C180
C380
C380
C300
C600
3C00
0000
3900
4E00
ENDCHAR
STARTCHAR uni1E75
ENCODING 7797
SWIDTH 634 0
DWIDTH 11 0
BBX 9 11 2 -3
BITMAP
3180
F300
6300
6300
6700
CE00
D680
E700
0000
3900
4E00
ENDCHAR
STARTCHAR uni1E76
ENCODING 7798
SWIDTH 776 0
DWIDTH 13 0
BBX 12 17 3 -5
BITMAP
F9F0
70C0
60C0
61C0
61C0
6180
C180
C380
C380
C300
C600
3C00
0000
0800
1C00
2400
4200
ENDCHAR
STARTCHAR uni1E77
ENCODING 7799
SWIDTH 634 0
DWIDTH 11 0
BBX 9 13 2 -5
BITMAP
3180
F300
6300
6300
6700
CE00
D680
E700
0000
0800
1C00
2400
4200
ENDCHAR
STARTCHAR uni1E78
ENCODING 7800
SWIDTH 776 0
DWIDTH 13 0
BBX 12 20 3 0
BITMAP
0180
0380
0600
0800
0000
1C80
2700
0000
F9F0
70C0
60C0
61C0
61C0
6180
C180
C380
C380
C300
C600
3C00
ENDCHAR
STARTCHAR uni1E79
ENCODING 7801
SWIDTH 634 0
DWIDTH 11 0
BBX 9 16 2 0
BITMAP
0300
0700
0C00
1000
0000
3900
4E00
0000
3180
F300
6300
6300
6700
CE00
D680
E700
ENDCHAR
STARTCHAR uni1E7A
ENCODING 7802
SWIDTH 776 0
DWIDTH 13 0
BBX 12 17 3 0
BITMAP
3B80
3B80
0000
1F00
0000
F9F0
70C0
60C0
61C0
61C0
6180
C180
C380
C380
C300
C600
3C00
ENDCHAR
STARTCHAR uni1E7B
ENCODING 7803
SWIDTH 634 0
DWIDTH 11 0
BBX 9 13 2 0
BITMAP
7700
7700
0000
3E00
0000
3180
F300
6300
6300
6700
CE00
D680
E700
ENDCHAR
STARTCHAR uni1E7C
ENCODING 7804
SWIDTH 630 0
DWIDTH 10 0
BBX 12 15 2 0
BITMAP
1C80
2700
0000
F8F0
7040
70C0
7080
3100
3100
3200
3200
3C00
3C00
3800
3800
ENDCHAR
STARTCHAR uni1E7D
ENCODING 7805
SWIDTH 518 0
DWIDTH 9 0
BBX 8 11 2 0
BITMAP
39
4E
00
33
E3
63
62
C2
C4
C8
F0
ENDCHAR
STARTCHAR uni1E7E
ENCODING 7806
SWIDTH 630 0
DWIDTH 10 0
BBX 12 15 2 -3
BITMAP
F8F0
7040
70C0
7080
3100
3100
3200
3200
3C00
3C00
3800
3800
0000
0C00
0C00
ENDCHAR
STARTCHAR uni1E7F
ENCODING 7807
SWIDTH 518 0
DWIDTH 9 0
BBX 8 11 2 -3
BITMAP
33
E3
63
62
C2
C4
C8
F0
00
30
30
ENDCHAR
STARTCHAR Wgrave
ENCODING 7808
SWIDTH 920 0
DWIDTH 15 0
BBX 16 17 2 0
BITMAP
0C00
0E00
0300
0080
0000
F007
6182
6382
6384
6784
6588
65C8
69D8
69D0
70E0
70E0
60C0
ENDCHAR
STARTCHAR wgrave
ENCODING 7809
SWIDTH 795 0
DWIDTH 13 0
BBX 12 13 2 0
BITMAP
1800
1C00
0600
0100
0000
2330
E330
6330
6630
C620
CE40
D680
E700
ENDCHAR
STARTCHAR Wacute
ENCODING 7810
SWIDTH 920 0
DWIDTH 15 0
BBX 16 17 2 0
BITMAP
00C0
01C0
0300
0400
0000
F007
6182
6382
6384
6784
6588
65C8
69D8
69D0
70E0
70E0
60C0
ENDCHAR
STARTCHAR wacute
ENCODING 7811
SWIDTH 795 0
DWIDTH 13 0
BBX 12 13 2 0
BITMAP
00C0
01C0
0300
0400
0000
2330
E330
6330
6630
C620
CE40
D680
E700
ENDCHAR
STARTCHAR Wdieresis
ENCODING 7812
SWIDTH 920 0
DWIDTH 15 0
BBX 16 15 2 0
BITMAP
0EE0
0EE0
0000
F007
6182
6382
6384
6784
6588
65C8
69D8
69D0
70E0
70E0
60C0
ENDCHAR
STARTCHAR wdieresis
ENCODING 7813
SWIDTH 795 0
DWIDTH 13 0
BBX 12 11 2 0
BITMAP
1DC0
1DC0
0000
2330
E330
6330
6630
C620
CE40
D680
E700
ENDCHAR
STARTCHAR uni1E86
ENCODING 7814
SWIDTH 920 0
DWIDTH 15 0
BBX 16 15 2 0
BITMAP
0300
0300
0000
F007
6182
6382
6384
6784
6588
65C8
69D8
69D0
70E0
70E0
60C0
ENDCHAR
STARTCHAR uni1E87
ENCODING 7815
SWIDTH 795 0
DWIDTH 13 0
BBX 12 11 2 0
BITMAP
0600
0600
0000
2330
E330
6330
6630
C620
CE40
D680
E700
ENDCHAR
STARTCHAR uni1E88
ENCODING 7816
SWIDTH 920 0
DWIDTH 15 0
BBX 16 15 2 -3
BITMAP
F007
6182
6382
6384
6784
6588
65C8
69D8
69D0
70E0
70E0
60C0
0000
0300
0300
ENDCHAR
STARTCHAR uni1E89
ENCODING 7817
SWIDTH 795 0
DWIDTH 13 0
BBX 12 11 2 -3
BITMAP
2330
E330
6330
6630
C620
CE40
D680
E700
0000
0C00
0C00
ENDCHAR
STARTCHAR uni1E8A
ENCODING 7818
SWIDTH 630 0
DWIDTH 10 0
BBX 13 15 0 0
BITMAP
0300
0300
0000
3E78
0C20
0E40
0680
0700
0700
0700
0F80
0980
11C0
21C0
FBE0
ENDCHAR
STARTCHAR uni1E8B
ENCODING 7819
SWIDTH 516 0
DWIDTH 9 0
BBX 10 11 0 0
BITMAP
0600
0600
0000
39C0
1F80
0C00
0C00
0C00
1E80
F680
E700
ENDCHAR
STARTCHAR uni1E8C
ENCODING 7820
SWIDTH 630 0
DWIDTH 10 0
BBX 13 15 0 0
BITMAP
1DC0
1DC0
0000
3E78
0C20
0E40
0680
0700
0700
0700
0F80
0980
11C0
21C0
FBE0
ENDCHAR
STARTCHAR uni1E8D
ENCODING 7821
SWIDTH 516 0
DWIDTH 9 0
BBX 10 11 0 0
BITMAP
3B80
3B80
0000
39C0
1F80
0C00
0C00
0C00
1E80
F680
E700
ENDCHAR
STARTCHAR uni1E8E
ENCODING 7822
SWIDTH 622 0
DWIDTH 10 0
BBX 11 15 2 0
BITMAP
0C00
0C00
0000
F9E0
3080
3180
3100
3A00
1C00
1C00
1800
1800
1800
3800
7C00
ENDCHAR
STARTCHAR uni1E8F
ENCODING 7823
SWIDTH 489 0
DWIDTH 8 0
BBX 10 15 -1 -4
BITMAP
0600
0600
0000
3840
18C0
1CC0
0C80
0D80
0D00
0E00
0E00
0C00
0800
4800
F000
ENDCHAR
STARTCHAR uni1E90
ENCODING 7824
SWIDTH 618 0
DWIDTH 10 0
BBX 12 17 0 0
BITMAP
0100
0380
0480
0840
0000
1FF0
1870
10E0
01C0
0380
0700
0E00
1E00
1C20
3840
70C0
FFC0
ENDCHAR
STARTCHAR uni1E91
ENCODING 7825
SWIDTH 466 0
DWIDTH 8 0
BBX 9 13 0 0
BITMAP
0400
0E00
1200
2100
0000
1F80
3F00
4600
0C00
1800
3100
7F00
CE00
ENDCHAR
STARTCHAR uni1E92
ENCODING 7826
SWIDTH 618 0
DWIDTH 10 0
BBX 12 15 0 -3
BITMAP
1FF0
1870
10E0
01C0
0380
0700
0E00
1E00
1C20
3840
70C0
FFC0
0000
0C00
0C00
ENDCHAR
STARTCHAR uni1E93
ENCODING 7827
SWIDTH 466 0
DWIDTH 8 0
BBX 9 11 0 -3
BITMAP
1F80
3F00
4600
0C00
1800
3100
7F00
CE00
0000
1800
1800
ENDCHAR
STARTCHAR uni1E94
ENCODING 7828
SWIDTH 618 0
DWIDTH 10 0
BBX 12 14 0 -2
BITMAP
1FF0
1870
10E0
01C0
0380
0700
0E00
1E00
1C20
3840
70C0
FFC0
0000
1F00
ENDCHAR
STARTCHAR uni1E95
ENCODING 7829
SWIDTH 466 0
DWIDTH 8 0
BBX 9 10 0 -2
BITMAP
1F80
3F00
4600
0C00
1800
3100
7F00
CE00
0000
3E00
ENDCHAR
STARTCHAR uni1E96
ENCODING 7830
SWIDTH 629 0
DWIDTH 10 0
BBX 10 14 1 -2
BITMAP
0C00
3800
1800
3800
3380
3580
3980
3180
7100
6340
6340
E380
0000
3E00
ENDCHAR
STARTCHAR uni1E97
ENCODING 7831
SWIDTH 359 0
DWIDTH 6 0
BBX 7 13 1 0
BITMAP
EE
EE
00
18
38
7E
30
30
30
20
68
68
70
ENDCHAR
STARTCHAR uni1E98
ENCODING 7832
SWIDTH 795 0
DWIDTH 13 0
BBX 12 13 2 0
BITMAP
0700
0880
0880
0700
0000
2330
E330
6330
6630
C620
CE40
D680
E700
ENDCHAR
STARTCHAR uni1E99
ENCODING 7833
SWIDTH 489 0
DWIDTH 8 0
BBX 10 17 -1 -4
BITMAP
0E00
1100
1100
0E00
0000
3840
18C0
1CC0
0C80
0D80
0D00
0E00
0E00
0C00
0800
4800
F000
ENDCHAR
STARTCHAR uni1EA0
ENCODING 7840
SWIDTH 634 0
DWIDTH 11 0
BBX 12 15 -1 -3
BITMAP
01C0
01C0
03C0
03C0
05C0
04C0
08C0
0FC0
10C0
30E0
20E0
F1F0
0000
0300
0300
ENDCHAR
STARTCHAR uni1EA1
ENCODING 7841
SWIDTH 596 0
DWIDTH 10 0
BBX 9 11 1 -3
BITMAP
0F80
3300
6300
6700
C600
CE00
D680
E700
0000
1800
1800
ENDCHAR
STARTCHAR uni1EA4
ENCODING 7844
SWIDTH 634 0
DWIDTH 11 0
BBX 12 20 -1 0
BITMAP
0060
00E0
0180
0200
0000
00C0
03E0
0410
01C0
01C0
03C0
03C0
05C0
04C0
08C0
0FC0
10C0
30E0
20E0
F1F0
ENDCHAR
STARTCHAR uni1EA5
ENCODING 7845
SWIDTH 596 0
DWIDTH 10 0
BBX 9 17 1 0
BITMAP
0180
0380
0600
0800
0000
0200
0600
1900
0180
0F80
3300
6300
6700
C600
CE00
D680
E700
ENDCHAR
STARTCHAR uni1EA6
ENCODING 7846
SWIDTH 634 0
DWIDTH 11 0
BBX 12 20 -1 0
BITMAP
0600
0700
0180
0040
0000
00C0
03E0
0410
01C0
01C0
03C0
03C0
05C0
04C0
08C0
0FC0
10C0
30E0
20E0
F1F0
ENDCHAR
STARTCHAR uni1EA7
ENCODING 7847
SWIDTH 596 0
DWIDTH 10 0
BBX 9 17 1 0
BITMAP
1800
1C00
0600
0100
0000
0200
0600
1900
0180
0F80
3300
6300
6700
C600
CE00
D680
E700
ENDCHAR
STARTCHAR uni1EAA
ENCODING 7850
SWIDTH 634 0
DWIDTH 11 0
BBX 12 18 -1 0
BITMAP
0720
09C0
0000
00C0
03E0
0410
01C0
01C0
03C0
03C0
05C0
04C0
08C0
0FC0
10C0
30E0
20E0
F1F0
ENDCHAR
STARTCHAR uni1EAB
ENCODING 7851
SWIDTH 596 0
DWIDTH 10 0
BBX 9 15 1 0
BITMAP
1C80
2700
0000
0200
0600
1900
0180
0F80
3300
6300
6700
C600
CE00
D680
E700
ENDCHAR
STARTCHAR uni1EAC
ENCODING 7852
SWIDTH 634 0
DWIDTH 11 0
BBX 12 20 -1 -3
BITMAP
0100
0380
0480
0840
0000
01C0
01C0
03C0
03C0
05C0
04C0
08C0
0FC0
10C0
30E0
20E0
F1F0
0000
0300
0300
ENDCHAR
STARTCHAR uni1EAD
ENCODING 7853
SWIDTH 596 0
DWIDTH 10 0
BBX 9 16 1 -3
BITMAP
0400
0E00
1200
2100
0000
0F80
3300
6300
6700
C600
CE00
D680
E700
0000
1800
1800
ENDCHAR
STARTCHAR uni1EAE
ENCODING 7854
SWIDTH 634 0
DWIDTH 11 0
BBX 12 21 -1 0
BITMAP
0060
00E0
0180
0200
0000
0020
0440
0380
0000
01C0
01C0
03C0
03C0
05C0
04C0
08C0
0FC0
10C0
30E0
20E0
F1F0
ENDCHAR
STARTCHAR uni1EAF
ENCODING 7855
SWIDTH 596 0
DWIDTH 10 0
BBX 9 17 1 0
BITMAP
0300
0700
0C00
1000
0000
0100
2200
1C00
0000
0F80
3300
6300
6700
C600
CE00
D680
E700
ENDCHAR
STARTCHAR uni1EB0
ENCODING 7856
SWIDTH 634 0
DWIDTH 11 0
BBX 12 21 -1 0
BITMAP
0C00
0E00
0300
0080
0000
0020
0440
0380
0000
01C0
01C0
03C0
03C0
05C0
04C0
08C0
0FC0
10C0
30E0
20E0
F1F0
ENDCHAR
STARTCHAR uni1EB1
ENCODING 7857
SWIDTH 596 0
DWIDTH 10 0
BBX 9 17 1 0
BITMAP
3000
3800
0C00
0200
0000
0100
2200
1C00
0000
0F80
3300
6300
6700
C600
CE00
D680
E700
ENDCHAR
STARTCHAR uni1EB4
ENCODING 7860
SWIDTH 634 0
DWIDTH 11 0
BBX 12 19 -1 0
BITMAP
0720
09C0
0000
0020
0440
0380
0000
01C0
01C0
03C0
03C0
05C0
04C0
08C0
0FC0
10C0
30E0
20E0
F1F0
ENDCHAR
STARTCHAR uni1EB5
ENCODING 7861
SWIDTH 596 0
DWIDTH 10 0
BBX 9 15 1 0
BITMAP
3900
4E00
0000
0100
2200
1C00
0000
0F80
3300
6300
6700
C600
CE00
D680
E700
ENDCHAR
STARTCHAR uni1EB6
ENCODING 7862
SWIDTH 634 0
DWIDTH 11 0
BBX 12 19 -1 -3
BITMAP
0020
0440
0380
0000
01C0
01C0
03C0
03C0
05C0
04C0
08C0
0FC0
10C0
30E0
20E0
F1F0
0000
0300
0300
ENDCHAR
STARTCHAR uni1EB7
ENCODING 7863
SWIDTH 596 0
DWIDTH 10 0
BBX 9 15 1 -3
BITMAP
0100
2200
1C00
0000
0F80
3300
6300
6700
C600
CE00
D680
E700
0000
1800
1800
ENDCHAR
STARTCHAR uni1EB8
ENCODING 7864
SWIDTH 622 0
DWIDTH 10 0
BBX 11 15 1 -3
BITMAP
3FE0
1C60
1C20
1800
1880
3F80
3900
3100
3040
7080
7180
FF80
0000
0C00
0C00
ENDCHAR
STARTCHAR uni1EB9
ENCODING 7865
SWIDTH 476 0
DWIDTH 8 0
BBX 8 11 1 -3
BITMAP
1E
33
63
C6
F8
C2
C6
78
00
30
30
ENDCHAR
STARTCHAR uni1EBC
ENCODING 7868
SWIDTH 622 0
DWIDTH 10 0
BBX 11 15 1 0
BITMAP
1C80
2700
0000
3FE0
1C60
1C20
1800
1880
3F80
3900
3100
3040
7080
7180
FF80
ENDCHAR
STARTCHAR uni1EBD
ENCODING 7869
SWIDTH 476 0
DWIDTH 8 0
BBX 8 11 1 0
BITMAP
39
4E
00
1E
33
63
C6
F8
C2
C6
78
ENDCHAR
STARTCHAR uni1EBE
ENCODING 7870
SWIDTH 622 0
DWIDTH 10 0
BBX 11 20 1 0
BITMAP
00C0
01C0
0300
0400
0000
0100
0FC0
0000
3FE0
1C60
1C20
1800
1880
3F80
3900
3100
3040
7080
7180
FF80
ENDCHAR
STARTCHAR uni1EBF
ENCODING 7871
SWIDTH 476 0
DWIDTH 8 0
BBX 8 17 1 0
BITMAP
03
07
0C
10
00
06
0E
31
40
1E
33
63
C6
F8
C2
C6
78
ENDCHAR
STARTCHAR uni1EC0
ENCODING 7872
SWIDTH 622 0
DWIDTH 10 0
BBX 11 20 1 0
BITMAP
1800
1C00
0600
0100
0000
0100
0FC0
0000
3FE0
1C60
1C20
1800
1880
3F80
3900
3100
3040
7080
7180
FF80
ENDCHAR
STARTCHAR uni1EC1
ENCODING 7873
SWIDTH 476 0
DWIDTH 8 0
BBX 8 17 1 0
BITMAP
60
70
18
04
00
06
0E
31
40
1E
33
63
C6
F8
C2
C6
78
ENDCHAR
STARTCHAR uni1EC4
ENCODING 7876
SWIDTH 622 0
DWIDTH 10 0
BBX 11 18 1 0
BITMAP
0E40
1380
0000
0100
0FC0
0000
3FE0
1C60
1C20
1800
1880
3F80
3900
3100
3040
7080
7180
FF80
ENDCHAR
STARTCHAR uni1EC5
ENCODING 7877
SWIDTH 476 0
DWIDTH 8 0
BBX 8 15 1 0
BITMAP
39
4E
00
06
0E
31
40
1E
33
63
C6
F8
C2
C6
78
ENDCHAR
STARTCHAR uni1EC6
ENCODING 7878
SWIDTH 622 0
DWIDTH 10 0
BBX 11 20 1 -3
BITMAP
0200
0700
0900
1080
0000
3FE0
1C60
1C20
1800
1880
3F80
3900
3100
3040
7080
7180
FF80
0000
0C00
0C00
ENDCHAR
STARTCHAR uni1EC7
ENCODING 7879
SWIDTH 476 0
DWIDTH 8 0
BBX 8 16 1 -3
BITMAP
04
0E
12
21
00
1E
33
63
C6
F8
C2
C6
78
00
30
30
ENDCHAR
STARTCHAR uni1ECA
ENCODING 7882
SWIDTH 386 0
DWIDTH 6 0
BBX 8 15 1 -3
BITMAP
3F
0C
0C
1C
1C
18
18
38
38
30
30
FC
00
30
30
ENDCHAR
STARTCHAR uni1ECB
ENCODING 7883
SWIDTH 339 0
DWIDTH 6 0
BBX 5 15 2 -3
BITMAP
18
38
10
00
30
E0
60
60
60
C0
D0
E0
00
60
60
ENDCHAR
STARTCHAR uni1ECC
ENCODING 7884
SWIDTH 761 0
DWIDTH 13 0
BBX 11 15 2 -3
BITMAP
0F80
38C0
7060
6060
E060
C060
C060
C0E0
C0C0
C1C0
6380
3E00
0000
0C00
0C00
ENDCHAR
STARTCHAR uni1ECD
ENCODING 7885
SWIDTH 562 0
DWIDTH 9 0
BBX 9 11 1 -3
BITMAP
1F00
7180
6180
E180
C380
C300
C700
7C00
0000
1800
1800
ENDCHAR
STARTCHAR uni1ED0
ENCODING 7888
SWIDTH 761 0
DWIDTH 13 0
BBX 11 20 2 0
BITMAP
00C0
01C0
0300
0400
0000
0100
0FC0
1000
0780
38C0
7060
6060
E060
C060
C060
C0E0
C0C0
C1C0
6380
3E00
ENDCHAR
STARTCHAR uni1ED1
ENCODING 7889
SWIDTH 562 0
DWIDTH 9 0
BBX 9 17 1 0
BITMAP
0300
0700
0C00
1000
0000
0600
0F00
3900
0000
1F00
7180
6180
E180
C380
C300
C700
7C00
ENDCHAR
STARTCHAR uni1ED2
ENCODING 7890
SWIDTH 761 0
DWIDTH 13 0
BBX 11 20 2 0
BITMAP
1800
1C00
0600
0100
0000
0100
0FC0
1000
0780
38C0
7060
6060
E060
C060
C060
C0E0
C0C0
C1C0
6380
3E00
ENDCHAR
STARTCHAR uni1ED3
ENCODING 7891
SWIDTH 562 0
DWIDTH 9 0
BBX 9 17 1 0
BITMAP
3000
3800
0C00
0200
0000
0600
0F00
3900
0000
1F00
7180
6180
E180
C380
C300
C700
7C00
ENDCHAR
STARTCHAR uni1ED6
ENCODING 7894
SWIDTH 761 0
DWIDTH 13 0
BBX 11 18 2 0
BITMAP
0E40
1380
0000
0100
0FC0
1000
0780
38C0
7060
6060
E060
C060
C060
C0E0
C0C0
C1C0
6380
3E00
ENDCHAR
STARTCHAR uni1ED7
ENCODING 7895
SWIDTH 562 0
DWIDTH 9 0
BBX 9 15 1 0
BITMAP
1C80
2700
0000
0600
0F00
3900
0000
1F00
7180
6180
E180
C380
C300
C700
7C00
ENDCHAR
STARTCHAR uni1ED8
ENCODING 7896
SWIDTH 761 0
DWIDTH 13 0
BBX 11 20 2 -3
BITMAP
0200
0700
0900
1080
0000
0F80
38C0
7060
6060
E060
C060
C060
C0E0
C0C0
C1C0
6380
3E00
0000
0C00
0C00
ENDCHAR
STARTCHAR uni1ED9
ENCODING 7897
SWIDTH 562 0
DWIDTH 9 0
BBX 9 16 1 -3
BITMAP
0400
0E00
1200
2100
0000
1F00
7180
6180
E180
C380
C300
C700
7C00
0000
1800
1800
ENDCHAR
STARTCHAR uni1EDA
ENCODING 7898
SWIDTH 761 0
DWIDTH 13 0
BBX 13 17 2 0
BITMAP
00C0
01C0
0300
0400
0000
0F98
38D8
7078
6070
E060
C060
C060
C0E0
C0C0
C1C0
6380
3E00
ENDCHAR
STARTCHAR uni1EDB
ENCODING 7899
SWIDTH 562 0
DWIDTH 9 0
BBX 11 13 1 0
BITMAP
0180
0380
0600
0800
0000
1F60
71E0
61E0
E1C0
C380
C300
C700
7C00
ENDCHAR
STARTCHAR uni1EDC
ENCODING 7900
SWIDTH 761 0
DWIDTH 13 0
BBX 13 17 2 0
BITMAP
0C00
0E00
0300
0080
0000
0F98
38D8
7078
6070
E060
C060
C060
C0E0
C0C0
C1C0
6380
3E00
ENDCHAR
STARTCHAR uni1EDD
ENCODING 7901
SWIDTH 562 0
DWIDTH 9 0
BBX 11 13 1 0
BITMAP
1800
1C00
0600
0100
0000
1F60
71E0
61E0
E1C0
C380
C300
C700
7C00
ENDCHAR
STARTCHAR uni1EE0
ENCODING 7904
SWIDTH 761 0
DWIDTH 13 0
BBX 13 15 2 0
BITMAP
0720
09C0
0000
0F98
38D8
7078
6070
E060
C060
C060
C0E0
C0C0
C1C0
6380
3E00
ENDCHAR
STARTCHAR uni1EE1
ENCODING 7905
SWIDTH 562 0
DWIDTH 9 0
BBX 11 11 1 0
BITMAP
0E40
1380
0000
1F60
71E0
61E0
E1C0
C380
C300
C700
7C00
ENDCHAR
STARTCHAR uni1EE2
ENCODING 7906
SWIDTH 761 0
DWIDTH 13 0
BBX 13 15 2 -3
BITMAP
0F98
38D8
7078
6070
E060
C060
C060
C0E0
C0C0
C1C0
6380
3E00
0000
0600
0600
ENDCHAR
STARTCHAR uni1EE3
ENCODING 7907
SWIDTH 562 0
DWIDTH 9 0
BBX 11 11 1 -3
BITMAP
1F60
71E0
61E0
E1C0
C380
C300
C700
7C00
0000
1800
1800
ENDCHAR
STARTCHAR uni1EE4
ENCODING 7908
SWIDTH 776 0
DWIDTH 13 0
BBX 12 15 3 -3
BITMAP
F9F0
70C0
60C0
61C0
61C0
6180
C180
C380
C380
C300
C600
3C00
0000
0C00
0C00
ENDCHAR
STARTCHAR uni1EE5
ENCODING 7909
SWIDTH 634 0
DWIDTH 11 0
BBX 9 11 2 -3
BITMAP
3180
F300
6300
6300
6700
CE00
D680
E700
0000
1800
1800
ENDCHAR
STARTCHAR uni1EE8
ENCODING 7912
SWIDTH 776 0
DWIDTH 13 0
BBX 14 17 3 0
BITMAP
00C0
01C0
0300
0400
0000
F9FC
70CC
60CC
61C8
61D0
6180
C180
C380
C380
C300
C600
3C00
ENDCHAR
STARTCHAR uni1EE9
ENCODING 7913
SWIDTH 634 0
DWIDTH 11 0
BBX 11 13 2 0
BITMAP
0180
0380
0600
0800
0000
31E0
F360
6360
6340
6780
CE00
D680
E700
ENDCHAR
STARTCHAR uni1EEA
ENCODING 7914
SWIDTH 776 0
DWIDTH 13 0
BBX 14 17 3 0
BITMAP
0C00
0E00
0300
0080
0000
F9FC
70CC
60CC
61C8
61D0
6180
C180
C380
C380
C300
C600
3C00
ENDCHAR
STARTCHAR uni1EEB
ENCODING 7915
SWIDTH 634 0
DWIDTH 11 0
BBX 11 13 2 0
BITMAP
1800
1C00
0600
0100
0000
31E0
F360
6360
6340
6780
CE00
D680
E700
ENDCHAR
STARTCHAR uni1EEE
ENCODING 7918
SWIDTH 776 0
DWIDTH 13 0
BBX 14 15 3 0
BITMAP
0720
09C0
0000
F9FC
70CC
60CC
61C8
61D0
6180
C180
C380
C380
C300
C600
3C00
ENDCHAR
STARTCHAR uni1EEF
ENCODING 7919
SWIDTH 634 0
DWIDTH 11 0
BBX 11 11 2 0
BITMAP
1C80
2700
0000
31E0
F360
6360
6340
6780
CE00
D680
E700
ENDCHAR
STARTCHAR uni1EF0
ENCODING 7920
SWIDTH 776 0
DWIDTH 13 0
BBX 14 15 3 -3
BITMAP
F9FC
70CC
60CC
61C8
61D0
6180
C180
C380
C380
C300
C600
3C00
0000
0C00
0C00
ENDCHAR
STARTCHAR uni1EF1
ENCODING 7921
SWIDTH 634 0
DWIDTH 11 0
BBX 11 11 2 -3
BITMAP
31E0
F360
6360
6340
6780
CE00
D680
E700
0000
0C00
0C00
ENDCHAR
STARTCHAR Ygrave
ENCODING 7922
SWIDTH 622 0
DWIDTH 10 0
BBX 11 17 2 0
BITMAP
3000
3800
0C00
0200
0000
F9E0
3080
3180
3100
3A00
1C00
1C00
1800
1800
1800
3800
7C00
ENDCHAR
STARTCHAR ygrave
ENCODING 7923
SWIDTH 489 0
DWIDTH 8 0
BBX 10 17 -1 -4
BITMAP
1800
1C00
0600
0100
0000
3840
18C0
1CC0
0C80
0D80
0D00
0E00
0E00
0C00
0800
4800
F000
ENDCHAR
STARTCHAR uni1EF4
ENCODING 7924
SWIDTH 622 0
DWIDTH 10 0
BBX 11 15 2 -3
BITMAP
F9E0
3080
3180
3100
3A00
1C00
1C00
1800
1800
1800
3800
7C00
0000
1800
1800
ENDCHAR
STARTCHAR uni1EF5
ENCODING 7925
SWIDTH 489 0
DWIDTH 8 0
BBX 10 15 -1 -7
BITMAP
3840
18C0
1CC0
0C80
0D80
0D00
0E00
0E00
0C00
0800
4800
F000
0000
1800
1800
ENDCHAR
STARTCHAR uni1EF8
ENCODING 7928
SWIDTH 622 0
DWIDTH 10 0
BBX 11 15 2 0
BITMAP
1C80
2700
0000
F9E0
3080
3180
3100
3A00
1C00
1C00
1800
1800
1800
3800
7C00
ENDCHAR
STARTCHAR uni1EF9
ENCODING 7929
SWIDTH 489 0
DWIDTH 8 0
BBX 10 15 -1 -4
BITMAP
1C80
2700
0000
3840
18C0
1CC0
0C80
0D80
0D00
0E00
0E00
0C00
0800
4800
F000
ENDCHAR
STARTCHAR uni2000
ENCODING 8192
SWIDTH 500 0
DWIDTH 8 0
BBX 1 1 0 0
BITMAP
00
ENDCHAR
STARTCHAR uni2001
ENCODING 8193
SWIDTH 1000 0
DWIDTH 17 0
BBX 1 1 0 0
BITMAP
00
ENDCHAR
STARTCHAR uni2002
ENCODING 8194
SWIDTH 500 0
DWIDTH 8 0
BBX 1 1 0 0
BITMAP
00
ENDCHAR
STARTCHAR uni2003
ENCODING 8195
SWIDTH 1000 0
DWIDTH 17 0
BBX 1 1 0 0
BITMAP
00
ENDCHAR
STARTCHAR uni2004
ENCODING 8196
SWIDTH 333 0
DWIDTH 6 0
BBX 1 1 0 0
BITMAP
00
ENDCHAR
STARTCHAR uni2005
ENCODING 8197
SWIDTH 250 0
DWIDTH 4 0
BBX 1 1 0 0
BITMAP
00
ENDCHAR
STARTCHAR uni2006
ENCODING 8198
SWIDTH 167 0
DWIDTH 3 0
BBX 1 1 0 0
BITMAP
00
ENDCHAR
STARTCHAR uni2007
ENCODING 8199
SWIDTH 560 0
DWIDTH 9 0
BBX 1 1 0 0
BITMAP
00
ENDCHAR
STARTCHAR uni2008
ENCODING 8200
SWIDTH 280 0
DWIDTH 5 0
BBX 1 1 0 0
BITMAP
00
ENDCHAR
STARTCHAR uni2009
ENCODING 8201
SWIDTH 200 0
DWIDTH 3 0
BBX 1 1 0 0
BITMAP
00
ENDCHAR
STARTCHAR uni200A
ENCODING 8202
SWIDTH 100 0
DWIDTH 2 0
BBX 1 1 0 0
BITMAP
00
ENDCHAR
STARTCHAR uni200B
ENCODING 8203
SWIDTH 0 0
DWIDTH 0 0
BBX 1 1 0 0
BITMAP
00
ENDCHAR
STARTCHAR uni2010
ENCODING 8208
SWIDTH 392 0
DWIDTH 7 0
BBX 5 2 2 3
BITMAP
F8
F8
ENDCHAR
STARTCHAR uni2011
ENCODING 8209
SWIDTH 392 0
DWIDTH 7 0
BBX 5 2 2 3
BITMAP
F8
F8
ENDCHAR
STARTCHAR figuredash
ENCODING 8210
SWIDTH 500 0
DWIDTH 8 0
BBX 9 1 1 4
BITMAP
FF80
ENDCHAR
STARTCHAR endash
ENCODING 8211
SWIDTH 500 0
DWIDTH 8 0
BBX 9 1 1 4
BITMAP
FF80
ENDCHAR
STARTCHAR emdash
ENCODING 8212
SWIDTH 1000 0
DWIDTH 17 0
BBX 17 1 1 4
BITMAP
FFFF80
ENDCHAR
STARTCHAR afii00208
ENCODING 8213
SWIDTH 1000 0
DWIDTH 17 0
BBX 17 1 1 4
BITMAP
FFFF80
ENDCHAR
STARTCHAR quoteleft
ENCODING 8216
SWIDTH 246 0
DWIDTH 4 0
BBX 3 5 3 7
BITMAP
20
40
C0
C0
C0
ENDCHAR
STARTCHAR quoteright
ENCODING 8217
SWIDTH 246 0
DWIDTH 4 0
BBX 3 5 2 7
BITMAP
60
60
60
40
80
ENDCHAR
STARTCHAR quotesinglbase
ENCODING 8218
SWIDTH 246 0
DWIDTH 4 0
BBX 3 5 0 -2
BITMAP
60
60
60
40
80
ENDCHAR
STARTCHAR quotereversed
ENCODING 8219
SWIDTH 246 0
DWIDTH 4 0
BBX 3 5 2 7
BITMAP
C0
C0
C0
40
20
ENDCHAR
STARTCHAR quotedblleft
ENCODING 8220
SWIDTH 455 0
DWIDTH 8 0
BBX 7 5 2 7
BITMAP
22
64
CC
EC
CC
ENDCHAR
STARTCHAR quotedblright
ENCODING 8221
SWIDTH 455 0
DWIDTH 8 0
BBX 7 5 2 7
BITMAP
66
6E
66
4C
88
ENDCHAR
STARTCHAR quotedblbase
ENCODING 8222
SWIDTH 455 0
DWIDTH 8 0
BBX 7 5 0 -2
BITMAP
66
6E
66
4C
88
ENDCHAR
STARTCHAR uni201F
ENCODING 8223
SWIDTH 455 0
DWIDTH 8 0
BBX 7 5 2 7
BITMAP
CC
EC
CC
64
22
ENDCHAR
STARTCHAR dagger
ENCODING 8224
SWIDTH 514 0
DWIDTH 9 0
BBX 7 15 3 -3
BITMAP
08
18
18
10
DE
FE
30
30
30
20
20
60
40
40
40
ENDCHAR
STARTCHAR daggerdbl
ENCODING 8225
SWIDTH 490 0
DWIDTH 8 0
BBX 8 14 1 -2
BITMAP
0C
0C
0C
7F
08
18
18
10
10
FE
10
30
30
20
ENDCHAR
STARTCHAR bullet
ENCODING 8226
SWIDTH 465 0
DWIDTH 8 0
BBX 6 6 2 3
BITMAP
30
78
FC
FC
78
30
ENDCHAR
STARTCHAR ellipsis
ENCODING 8230
SWIDTH 1000 0
DWIDTH 17 0
BBX 15 3 2 0
BITMAP
6186
E38E
C30C
ENDCHAR
STARTCHAR perthousand
ENCODING 8240
SWIDTH 1297 0
DWIDTH 22 0
BBX 20 12 2 0
BITMAP
001000
3FE000
662000
C64000
C48000
C90000
7A71E0
00DB30
059A30
099630
11B660
20E3C0
ENDCHAR
STARTCHAR guilsinglleft
ENCODING 8249
SWIDTH 360 0
DWIDTH 6 0
BBX 4 7 2 1
BITMAP
10
20
60
C0
40
40
20
ENDCHAR
STARTCHAR guilsinglright
ENCODING 8250
SWIDTH 360 0
DWIDTH 6 0
BBX 4 7 2 1
BITMAP
40
20
20
30
60
40
80
ENDCHAR
STARTCHAR fraction
ENCODING 8260
SWIDTH 100 0
DWIDTH 2 0
BBX 9 13 -2 -1
BITMAP
0080
0180
0100
0200
0600
0400
0800
1000
3000
2000
4000
C000
8000
ENDCHAR
STARTCHAR oneinferior
ENCODING 8321
SWIDTH 402 0
DWIDTH 7 0
BBX 5 6 2 -4
BITMAP
58
38
30
70
70
F8
ENDCHAR
STARTCHAR twoinferior
ENCODING 8322
SWIDTH 402 0
DWIDTH 7 0
BBX 7 6 1 -4
BITMAP
1C
36
26
0C
30
FE
ENDCHAR
STARTCHAR threeinferior
ENCODING 8323
SWIDTH 402 0
DWIDTH 7 0
BBX 6 6 2 -4
BITMAP
38
6C
0C
30
98
F0
ENDCHAR
STARTCHAR uni20A5
ENCODING 8357
SWIDTH 914 0
DWIDTH 15 0
BBX 15 12 1 -2
BITMAP
0060
0040
13DC
75EC
39CC
318C
7398
731A
631A
E71C
0200
0600
ENDCHAR
STARTCHAR uni20A6
ENCODING 8358
SWIDTH 741 0
DWIDTH 12 0
BBX 14 12 1 0
BITMAP
3C3C
0E18
1610
1710
1FF0
1320
13A0
3FE0
21E0
21E0
60C0
F0C0
ENDCHAR
STARTCHAR uni20A9
ENCODING 8361
SWIDTH 920 0
DWIDTH 15 0
BBX 16 12 2 0
BITMAP
F007
6182
6382
6384
6FF4
6588
65C8
6FF8
69D0
70E0
70E0
60C0
ENDCHAR
STARTCHAR Euro
ENCODING 8364
SWIDTH 672 0
DWIDTH 11 0
BBX 13 12 0 0
BITMAP
01E0
0638
0C10
1C10
FF00
3800
3800
FF00
3820
1820
1C40
0780
ENDCHAR
STARTCHAR uni20AD
ENCODING 8365
SWIDTH 688 0
DWIDTH 11 0
BBX 13 12 1 0
BITMAP
3E78
1C60
1CC0
1980
1A00
FFF8
3F00
3700
3780
7380
61C0
F8E0
ENDCHAR
STARTCHAR uni2103
ENCODING 8451
SWIDTH 1028 0
DWIDTH 17 0
BBX 17 12 2 0
BITMAP
001E00
786380
84C100
85C100
858000
7B8000
038000
038000
038200
018200
01C400
007800
ENDCHAR
STARTCHAR uni2109
ENCODING 8457
SWIDTH 941 0
DWIDTH 16 0
BBX 16 12 2 0
BITMAP
01FF
7863
8461
8460
84C2
78C4
00FC
00C4
00C0
01C0
0180
07E0
ENDCHAR
STARTCHAR trademark
ENCODING 8482
SWIDTH 1100 0
DWIDTH 18 0
BBX 17 8 2 4
BITMAP
FEE380
9AE700
18AB00
18AB00
18BB00
18BB00
189300
3DD780
ENDCHAR
STARTCHAR uni212A
ENCODING 8490
SWIDTH 688 0
DWIDTH 11 0
BBX 13 12 1 0
BITMAP
3E78
1C60
1CC0
1980
1A00
3E00
3F00
3700
3780
7380
61C0
F8E0
ENDCHAR
STARTCHAR uni212B
ENCODING 8491
SWIDTH 634 0
DWIDTH 11 0
BBX 11 15 0 0
BITMAP
0180
0240
0240
0380
0380
0380
0580
0D80
09C0
19C0
1FC0
20C0
20C0
40C0
E1E0
ENDCHAR
STARTCHAR uni2132
ENCODING 8498
SWIDTH 585 0
DWIDTH 10 0
BBX 11 12 1 0
BITMAP
07E0
0180
0380
0300
2300
3F00
2300
4300
0600
8600
C600
FF80
ENDCHAR
STARTCHAR minus
ENCODING 8722
SWIDTH 600 0
DWIDTH 10 0
BBX 8 1 2 4
BITMAP
FF
ENDCHAR
STARTCHAR fraction
ENCODING 8725
SWIDTH 100 0
DWIDTH 2 0
BBX 9 13 -2 -1
BITMAP
0080
0180
0100
0200
0600
0400
0800
1000
3000
2000
4000
C000
8000
ENDCHAR
STARTCHAR periodcentered
ENCODING 8729
SWIDTH 280 0
DWIDTH 5 0
BBX 3 3 2 3
BITMAP
60
E0
C0
ENDCHAR
STARTCHAR uni2236
ENCODING 8758
SWIDTH 280 0
DWIDTH 5 0
BBX 4 8 1 0
BITMAP
30
70
20
00
00
60
E0
C0
ENDCHAR
STARTCHAR uni2259
ENCODING 8793
SWIDTH 600 0
DWIDTH 10 0
BBX 8 9 2 2
BITMAP
08
1C
24
42
00
FF
00
00
FF
ENDCHAR
STARTCHAR uni225A
ENCODING 8794
SWIDTH 600 0
DWIDTH 10 0
BBX 8 9 2 2
BITMAP
42
24
38
10
00
FF
00
00
FF
ENDCHAR
STARTCHAR notequal
ENCODING 8800
SWIDTH 600 0
DWIDTH 10 0
BBX 8 12 2 -2
BITMAP
06
04
04
0C
FF
18
18
FF
30
20
20
60
ENDCHAR
STARTCHAR equivalence
ENCODING 8801
SWIDTH 600 0
DWIDTH 10 0
BBX 8 5 0 1
BITMAP
FF
00
FF
00
FF
ENDCHAR
STARTCHAR uni2262
ENCODING 8802
SWIDTH 600 0
DWIDTH 10 0
BBX 8 12 0 -2
BITMAP
06
04
04
0C
FF
18
FF
10
FF
20
20
60
ENDCHAR
STARTCHAR lessequal
ENCODING 8804
SWIDTH 600 0
DWIDTH 10 0
BBX 8 11 2 -3
BITMAP
01
07
1E
78
C0
F0
1C
07
01
00
FF
ENDCHAR
STARTCHAR greaterequal
ENCODING 8805
SWIDTH 600 0
DWIDTH 10 0
BBX 8 11 2 -3
BITMAP
80
E0
78
1E
03
0F
38
E0
80
00
FF
ENDCHAR
STARTCHAR uni226E
ENCODING 8814
SWIDTH 600 0
DWIDTH 10 0
BBX 8 12 2 -2
BITMAP
06
04
05
0F
1E
78
D8
F0
3C
27
21
60
ENDCHAR
STARTCHAR uni226F
ENCODING 8815
SWIDTH 600 0
DWIDTH 10 0
BBX 8 12 2 -2
BITMAP
06
04
84
EC
78
1E
1B
1F
38
E0
A0
60
ENDCHAR
STARTCHAR uni2270
ENCODING 8816
SWIDTH 600 0
DWIDTH 10 0
BBX 8 12 2 -3
BITMAP
06
05
07
1E
78
D8
F8
1C
37
21
20
FF
ENDCHAR
STARTCHAR uni2271
ENCODING 8817
SWIDTH 600 0
DWIDTH 10 0
BBX 8 12 2 -3
BITMAP
06
84
E4
7C
1E
1B
1F
38
F0
A0
20
FF
ENDCHAR
STARTCHAR fi
ENCODING -1
SWIDTH 651 0
DWIDTH 11 0
BBX 13 16 -2 -4
BITMAP
00F0
0198
0318
0300
0FF8
0730
0630
0630
0E20
0E68
0C68
0C70
0C00
1800
D800
7000
ENDCHAR
STARTCHAR fl
ENCODING -1
SWIDTH 652 0
DWIDTH 11 0
BBX 14 16 -2 -4
BITMAP
00FC
01B8
0318
0338
0FB8
0730
0630
0630
0E20
0E68
0C68
0C70
0C00
1800
D800
7000
ENDCHAR
ENDFONT
